<svg id="my-svg" width="100%" xmlns="http://www.w3.org/2000/svg" xmlns:xlink="http://www.w3.org/1999/xlink" class="classDiagram" style="max-width: 1093.38px; background-color: white;" viewBox="0 0 1093.376953125 847" role="graphics-document document" aria-roledescription="class"><style>#my-svg{font-family:"trebuchet ms",verdana,arial,sans-serif;font-size:16px;fill:#333;}@keyframes edge-animation-frame{from{stroke-dashoffset:0;}}@keyframes dash{to{stroke-dashoffset:0;}}#my-svg .edge-animation-slow{stroke-dasharray:9,5!important;stroke-dashoffset:900;animation:dash 50s linear infinite;stroke-linecap:round;}#my-svg .edge-animation-fast{stroke-dasharray:9,5!important;stroke-dashoffset:900;animation:dash 20s linear infinite;stroke-linecap:round;}#my-svg .error-icon{fill:#552222;}#my-svg .error-text{fill:#552222;stroke:#552222;}#my-svg .edge-thickness-normal{stroke-width:1px;}#my-svg .edge-thickness-thick{stroke-width:3.5px;}#my-svg .edge-pattern-solid{stroke-dasharray:0;}#my-svg .edge-thickness-invisible{stroke-width:0;fill:none;}#my-svg .edge-pattern-dashed{stroke-dasharray:3;}#my-svg .edge-pattern-dotted{stroke-dasharray:2;}#my-svg .marker{fill:#333333;stroke:#333333;}#my-svg .marker.cross{stroke:#333333;}#my-svg svg{font-family:"trebuchet ms",verdana,arial,sans-serif;font-size:16px;}#my-svg p{margin:0;}#my-svg g.classGroup text{fill:#9370DB;stroke:none;font-family:"trebuchet ms",verdana,arial,sans-serif;font-size:10px;}#my-svg g.classGroup text .title{font-weight:bolder;}#my-svg .cluster-label text{fill:#333;}#my-svg .cluster-label span{color:#333;}#my-svg .cluster-label span p{background-color:transparent;}#my-svg .cluster rect{fill:#ffffde;stroke:#aaaa33;stroke-width:1px;}#my-svg .cluster text{fill:#333;}#my-svg .cluster span{color:#333;}#my-svg .nodeLabel,#my-svg .edgeLabel{color:#131300;}#my-svg .noteLabel .nodeLabel,#my-svg .noteLabel .edgeLabel{color:black;}#my-svg .edgeLabel .label rect{fill:#ECECFF;}#my-svg .label text{fill:#131300;}#my-svg .labelBkg{background:#ECECFF;}#my-svg .edgeLabel .label span{background:#ECECFF;}#my-svg .classTitle{font-weight:bolder;}#my-svg .node rect,#my-svg .node circle,#my-svg .node ellipse,#my-svg .node polygon,#my-svg .node path{fill:#ECECFF;stroke:#9370DB;stroke-width:1;}#my-svg .divider{stroke:#9370DB;stroke-width:1;}#my-svg g.clickable{cursor:pointer;}#my-svg g.classGroup rect{fill:#ECECFF;stroke:#9370DB;}#my-svg g.classGroup line{stroke:#9370DB;stroke-width:1;}#my-svg .classLabel .box{stroke:none;stroke-width:0;fill:#ECECFF;opacity:0.5;}#my-svg .classLabel .label{fill:#9370DB;font-size:10px;}#my-svg .relation{stroke:#333333;stroke-width:1;fill:none;}#my-svg .dashed-line{stroke-dasharray:3;}#my-svg .dotted-line{stroke-dasharray:1 2;}#my-svg [id$="-compositionStart"],#my-svg .composition{fill:#333333!important;stroke:#333333!important;stroke-width:1;}#my-svg [id$="-compositionEnd"],#my-svg .composition{fill:#333333!important;stroke:#333333!important;stroke-width:1;}#my-svg [id$="-dependencyStart"],#my-svg .dependency{fill:#333333!important;stroke:#333333!important;stroke-width:1;}#my-svg [id$="-dependencyEnd"],#my-svg .dependency{fill:#333333!important;stroke:#333333!important;stroke-width:1;}#my-svg [id$="-extensionStart"],#my-svg .extension{fill:transparent!important;stroke:#333333!important;stroke-width:1;}#my-svg [id$="-extensionEnd"],#my-svg .extension{fill:transparent!important;stroke:#333333!important;stroke-width:1;}#my-svg [id$="-aggregationStart"],#my-svg .aggregation{fill:transparent!important;stroke:#333333!important;stroke-width:1;}#my-svg [id$="-aggregationEnd"],#my-svg .aggregation{fill:transparent!important;stroke:#333333!important;stroke-width:1;}#my-svg [id$="-lollipopStart"],#my-svg .lollipop{fill:#ECECFF!important;stroke:#333333!important;stroke-width:1;}#my-svg [id$="-lollipopEnd"],#my-svg .lollipop{fill:#ECECFF!important;stroke:#333333!important;stroke-width:1;}#my-svg .edgeTerminals{font-size:11px;line-height:initial;}#my-svg .classTitleText{text-anchor:middle;font-size:18px;fill:#333;}#my-svg .edgeLabel[data-look="neo"]{background-color:rgba(232,232,232, 0.8);text-align:center;}#my-svg .edgeLabel[data-look="neo"] p{background-color:rgba(232,232,232, 0.8);}#my-svg .edgeLabel[data-look="neo"] rect{opacity:0.5;background-color:rgba(232,232,232, 0.8);fill:rgba(232,232,232, 0.8);}#my-svg .label-icon{display:inline-block;height:1em;overflow:visible;vertical-align:-0.125em;}#my-svg .node .label-icon path{fill:currentColor;stroke:revert;stroke-width:revert;}#my-svg .node .neo-node{stroke:#9370DB;}#my-svg [data-look="neo"].node rect,#my-svg [data-look="neo"].cluster rect,#my-svg [data-look="neo"].node polygon{stroke:#9370DB;filter:drop-shadow(1px 2px 2px rgba(185, 185, 185, 1));}#my-svg [data-look="neo"].node path{stroke:#9370DB;stroke-width:1px;}#my-svg [data-look="neo"].node .outer-path{filter:drop-shadow(1px 2px 2px rgba(185, 185, 185, 1));}#my-svg [data-look="neo"].node .neo-line path{stroke:#9370DB;filter:none;}#my-svg [data-look="neo"].node circle{stroke:#9370DB;filter:drop-shadow(1px 2px 2px rgba(185, 185, 185, 1));}#my-svg [data-look="neo"].node circle .state-start{fill:#000000;}#my-svg [data-look="neo"].icon-shape .icon{fill:#9370DB;filter:drop-shadow(1px 2px 2px rgba(185, 185, 185, 1));}#my-svg [data-look="neo"].icon-shape .icon-neo path{stroke:#9370DB;filter:drop-shadow(1px 2px 2px rgba(185, 185, 185, 1));}#my-svg :root{--mermaid-font-family:"trebuchet ms",verdana,arial,sans-serif;}</style><g><defs><marker id="my-svg_class-aggregationStart" class="marker aggregation class" refX="18" refY="7" markerWidth="190" markerHeight="240" orient="auto"><path d="M 18,7 L9,13 L1,7 L9,1 Z"/></marker></defs><defs><marker id="my-svg_class-aggregationEnd" class="marker aggregation class" refX="1" refY="7" markerWidth="20" markerHeight="28" orient="auto"><path d="M 18,7 L9,13 L1,7 L9,1 Z"/></marker></defs><defs><marker id="my-svg_class-aggregationStart-margin" class="marker aggregation class" refX="15" refY="7" markerWidth="190" markerHeight="240" orient="auto" markerUnits="userSpaceOnUse"><path d="M 18,7 L9,13 L1,7 L9,1 Z" style="stroke-width: 2;"/></marker></defs><defs><marker id="my-svg_class-aggregationEnd-margin" class="marker aggregation class" refX="1" refY="7" markerWidth="20" markerHeight="28" orient="auto" markerUnits="userSpaceOnUse"><path d="M 18,7 L9,13 L1,7 L9,1 Z" style="stroke-width: 2;"/></marker></defs><defs><marker id="my-svg_class-extensionStart" class="marker extension class" refX="18" refY="7" markerWidth="20" markerHeight="28" orient="auto" markerUnits="userSpaceOnUse"><path d="M 1,7 L18,13 V 1 Z"/></marker></defs><defs><marker id="my-svg_class-extensionEnd" class="marker extension class" refX="1" refY="7" markerWidth="20" markerHeight="28" orient="auto"><path d="M 1,1 V 13 L18,7 Z"/></marker></defs><marker id="my-svg_class-extensionStart-margin" class="marker extension class" refX="18" refY="7" markerWidth="20" markerHeight="28" orient="auto" markerUnits="userSpaceOnUse" viewBox="0 0 20 14"><polygon points="10,7 18,13 18,1" style="stroke-width: 2; stroke-dasharray: 0;"/></marker><defs><marker id="my-svg_class-extensionEnd-margin" class="marker extension class" refX="9" refY="7" markerWidth="20" markerHeight="28" orient="auto" markerUnits="userSpaceOnUse" viewBox="0 0 20 14"><polygon points="10,1 10,13 18,7" style="stroke-width: 2; stroke-dasharray: 0;"/></marker></defs><defs><marker id="my-svg_class-compositionStart" class="marker composition class" refX="18" refY="7" markerWidth="190" markerHeight="240" orient="auto"><path d="M 18,7 L9,13 L1,7 L9,1 Z"/></marker></defs><defs><marker id="my-svg_class-compositionEnd" class="marker composition class" refX="1" refY="7" markerWidth="20" markerHeight="28" orient="auto"><path d="M 18,7 L9,13 L1,7 L9,1 Z"/></marker></defs><defs><marker id="my-svg_class-compositionStart-margin" class="marker composition class" refX="15" refY="7" markerWidth="190" markerHeight="240" orient="auto" markerUnits="userSpaceOnUse"><path viewBox="0 0 15 15" d="M 18,7 L9,13 L1,7 L9,1 Z" style="stroke-width: 0;"/></marker></defs><defs><marker id="my-svg_class-compositionEnd-margin" class="marker composition class" refX="3.5" refY="7" markerWidth="20" markerHeight="28" orient="auto" markerUnits="userSpaceOnUse"><path d="M 18,7 L9,13 L1,7 L9,1 Z" style="stroke-width: 0;"/></marker></defs><defs><marker id="my-svg_class-dependencyStart" class="marker dependency class" refX="6" refY="7" markerWidth="190" markerHeight="240" orient="auto"><path d="M 5,7 L9,13 L1,7 L9,1 Z"/></marker></defs><defs><marker id="my-svg_class-dependencyEnd" class="marker dependency class" refX="13" refY="7" markerWidth="20" markerHeight="28" orient="auto"><path d="M 18,7 L9,13 L14,7 L9,1 Z"/></marker></defs><defs><marker id="my-svg_class-dependencyStart-margin" class="marker dependency class" refX="4" refY="7" markerWidth="190" markerHeight="240" orient="auto" markerUnits="userSpaceOnUse"><path d="M 5,7 L9,13 L1,7 L9,1 Z" style="stroke-width: 0;"/></marker></defs><defs><marker id="my-svg_class-dependencyEnd-margin" class="marker dependency class" refX="16" refY="7" markerWidth="20" markerHeight="28" orient="auto" markerUnits="userSpaceOnUse"><path d="M 18,7 L9,13 L14,7 L9,1 Z" style="stroke-width: 0;"/></marker></defs><defs><marker id="my-svg_class-lollipopStart" class="marker lollipop class" refX="13" refY="7" markerWidth="190" markerHeight="240" orient="auto"><circle fill="transparent" cx="7" cy="7" r="6"/></marker></defs><defs><marker id="my-svg_class-lollipopEnd" class="marker lollipop class" refX="1" refY="7" markerWidth="190" markerHeight="240" orient="auto"><circle fill="transparent" cx="7" cy="7" r="6"/></marker></defs><defs><marker id="my-svg_class-lollipopStart-margin" class="marker lollipop class" refX="13" refY="7" markerWidth="190" markerHeight="240" orient="auto" markerUnits="userSpaceOnUse"><circle fill="transparent" cx="7" cy="7" r="6" stroke-width="2"/></marker></defs><defs><marker id="my-svg_class-lollipopEnd-margin" class="marker lollipop class" refX="1" refY="7" markerWidth="190" markerHeight="240" orient="auto" markerUnits="userSpaceOnUse"><circle fill="transparent" cx="7" cy="7" r="6" stroke-width="2"/></marker></defs><g class="root"><g class="clusters"><g class="cluster undefined" id="my-svg-pi_better_mermaid" data-look="classic"><rect style="" x="405.076171875" y="8" width="642.08203125" height="509"/><g class="cluster-label" transform="translate(650.46875, 8)"><foreignObject width="151.296875" height="24"><div xmlns="http://www.w3.org/1999/xhtml" style="display: table-cell; white-space: nowrap; line-height: 1.5;"><span class="nodeLabel"><p>pi_better_mermaid</p></span></div></foreignObject></g></g><g class="cluster undefined" id="my-svg-validation" data-look="classic"><rect style="" x="8" y="299" width="377.076171875" height="540"/><g class="cluster-label" transform="translate(157.1474609375, 299)"><foreignObject width="78.78125" height="24"><div xmlns="http://www.w3.org/1999/xhtml" style="display: table-cell; white-space: nowrap; line-height: 1.5;"><span class="nodeLabel"><p>validation</p></span></div></foreignObject></g></g><g class="cluster undefined" id="my-svg-references" data-look="classic"><rect style="" x="478.068359375" y="591" width="607.30859375" height="248"/><g class="cluster-label" transform="translate(739.35546875, 591)"><foreignObject width="84.734375" height="24"><div xmlns="http://www.w3.org/1999/xhtml" style="display: table-cell; white-space: nowrap; line-height: 1.5;"><span class="nodeLabel"><p>references</p></span></div></foreignObject></g></g></g><g class="edgePaths"><path d="M698.179,225L704.052,231.167C709.924,237.333,721.669,249.667,727.542,262C733.414,274.333,733.414,286.667,733.414,296C733.414,305.333,733.414,311.667,733.414,314.833L733.414,318" id="my-svg-id_Skill_TypeTable_1" class="edge-thickness-normal edge-pattern-solid relation" style=";;;" data-edge="true" data-et="edge" data-id="id_Skill_TypeTable_1" data-points="W3sieCI6Njk4LjE3OTQwODQ4MjE0MjksInkiOjIyNX0seyJ4Ijo3MzMuNDE0MDYyNSwieSI6MjYyfSx7IngiOjczMy40MTQwNjI1LCJ5IjoyOTl9LHsieCI6NzMzLjQxNDA2MjUsInkiOjMyNH1d" data-look="classic" marker-end="url(#my-svg_class-dependencyEnd)"/><path d="M495.296,225L488.136,231.167C480.976,237.333,466.656,249.667,459.496,262C452.336,274.333,452.336,286.667,433.972,301.377C415.609,316.088,378.882,333.175,360.518,341.719L342.155,350.263" id="my-svg-id_Skill_MmdcCli_2" class="edge-thickness-normal edge-pattern-dashed relation" style=";;;" data-edge="true" data-et="edge" data-id="id_Skill_MmdcCli_2" data-points="W3sieCI6NDk1LjI5NTk0OTgzNTUyNjMsInkiOjIyNX0seyJ4Ijo0NTIuMzM1OTM3NSwieSI6MjYyfSx7IngiOjQ1Mi4zMzU5Mzc1LCJ5IjoyOTl9LHsieCI6MzM2LjcxNDg0Mzc1LCJ5IjozNTIuNzkzOTMwODA0NTAxOX1d" data-look="classic" marker-end="url(#my-svg_class-dependencyEnd)"/><path d="M526.593,225L521.443,231.167C516.294,237.333,505.995,249.667,500.845,262C495.695,274.333,495.695,286.667,495.695,311C495.695,335.333,495.695,371.667,495.695,408C495.695,444.333,495.695,480.667,431.111,505C366.527,529.333,237.358,541.667,172.774,554C108.189,566.333,108.189,578.667,110.341,588.16C112.492,597.654,116.795,604.308,118.947,607.635L121.098,610.962" id="my-svg-id_Skill_LintRules_3" class="edge-thickness-normal edge-pattern-dashed relation" style=";;;" data-edge="true" data-et="edge" data-id="id_Skill_LintRules_3" data-points="W3sieCI6NTI2LjU5Mjk0MjMxNjcyOTQsInkiOjIyNX0seyJ4Ijo0OTUuNjk1MzEyNSwieSI6MjYyfSx7IngiOjQ5NS42OTUzMTI1LCJ5IjoyOTl9LHsieCI6NDk1LjY5NTMxMjUsInkiOjQwOH0seyJ4Ijo0OTUuNjk1MzEyNSwieSI6NTE3fSx7IngiOjEwOC4xODk0NTMxMjUsInkiOjU1NH0seyJ4IjoxMDguMTg5NDUzMTI1LCJ5Ijo1OTF9LHsieCI6MTI0LjM1NjY4MTU3NzYyMDk2LCJ5Ijo2MTZ9XQ==" data-look="classic" marker-end="url(#my-svg_class-dependencyEnd)"/><path d="M218.059,492L218.059,496.167C218.059,500.333,218.059,508.667,218.059,519C218.059,529.333,218.059,541.667,218.059,554C218.059,566.333,218.059,578.667,217.294,588.027C216.53,597.388,215,603.777,214.236,606.971L213.471,610.165" id="my-svg-id_MmdcCli_LintRules_4" class="edge-thickness-normal edge-pattern-dashed relation" style=";;;" data-edge="true" data-et="edge" data-id="id_MmdcCli_LintRules_4" data-points="W3sieCI6MjE4LjA1ODU5Mzc1LCJ5Ijo0OTJ9LHsieCI6MjE4LjA1ODU5Mzc1LCJ5Ijo1MTd9LHsieCI6MjE4LjA1ODU5Mzc1LCJ5Ijo1NTR9LHsieCI6MjE4LjA1ODU5Mzc1LCJ5Ijo1OTF9LHsieCI6MjEyLjA3NDc4NTc4NjI5MDMzLCJ5Ijo2MTZ9XQ==" data-look="classic" marker-end="url(#my-svg_class-dependencyEnd)"/><path d="M574.751,225L572.695,231.167C570.639,237.333,566.526,249.667,564.47,262C562.414,274.333,562.414,286.667,562.414,311C562.414,335.333,562.414,371.667,562.414,408C562.414,444.333,562.414,480.667,562.414,505C562.414,529.333,562.414,541.667,562.414,554C562.414,566.333,562.414,578.667,568.509,590.8C574.604,602.934,586.793,614.868,592.888,620.835L598.983,626.803" id="my-svg-id_Skill_EncodedPrefs_5" class="edge-thickness-normal edge-pattern-solid relation" style=";;;" data-edge="true" data-et="edge" data-id="id_Skill_EncodedPrefs_5" data-points="W3sieCI6NTc0Ljc1MDgzNzA1MzU3MTQsInkiOjIyNX0seyJ4Ijo1NjIuNDE0MDYyNSwieSI6MjYyfSx7IngiOjU2Mi40MTQwNjI1LCJ5IjoyOTl9LHsieCI6NTYyLjQxNDA2MjUsInkiOjQwOH0seyJ4Ijo1NjIuNDE0MDYyNSwieSI6NTE3fSx7IngiOjU2Mi40MTQwNjI1LCJ5Ijo1NTR9LHsieCI6NTYyLjQxNDA2MjUsInkiOjU5MX0seyJ4Ijo2MDMuMjcwMjg3Mjk4Mzg3MSwieSI6NjMxfV0=" data-look="classic" marker-end="url(#my-svg_class-dependencyEnd)"/><path d="M732.998,178.093L768.958,192.077C804.919,206.062,876.839,234.031,912.799,254.182C948.76,274.333,948.76,286.667,948.76,311C948.76,335.333,948.76,371.667,948.76,408C948.76,444.333,948.76,480.667,948.76,505C948.76,529.333,948.76,541.667,948.76,554C948.76,566.333,948.76,578.667,948.76,592.5C948.76,606.333,948.76,621.667,948.76,629.333L948.76,637" id="my-svg-id_Skill_SelfCheck_6" class="edge-thickness-normal edge-pattern-solid relation" style=";;;" data-edge="true" data-et="edge" data-id="id_Skill_SelfCheck_6" data-points="W3sieCI6NzMyLjk5ODA0Njg3NSwieSI6MTc4LjA5MjY2NDkzMDU1NTU0fSx7IngiOjk0OC43NTk3NjU2MjUsInkiOjI2Mn0seyJ4Ijo5NDguNzU5NzY1NjI1LCJ5IjoyOTl9LHsieCI6OTQ4Ljc1OTc2NTYyNSwieSI6NDA4fSx7IngiOjk0OC43NTk3NjU2MjUsInkiOjUxN30seyJ4Ijo5NDguNzU5NzY1NjI1LCJ5Ijo1NTR9LHsieCI6OTQ4Ljc1OTc2NTYyNSwieSI6NTkxfSx7IngiOjk0OC43NTk3NjU2MjUsInkiOjY0M31d" data-look="classic" marker-end="url(#my-svg_class-dependencyEnd)"/><path d="M733.414,509.25L733.414,510.542C733.414,511.833,733.414,514.417,733.414,521.875C733.414,529.333,733.414,541.667,733.414,554C733.414,566.333,733.414,578.667,731.03,591.5C728.646,604.333,723.877,617.667,721.493,624.333L719.109,631" id="my-svg-id_TypeTable_EncodedPrefs_7" class="edge-thickness-normal edge-pattern-solid relation" style=";;;" data-edge="true" data-et="edge" data-id="id_TypeTable_EncodedPrefs_7" data-points="W3sieCI6NzMzLjQxNDA2MjUsInkiOjQ5Mn0seyJ4Ijo3MzMuNDE0MDYyNSwieSI6NTE3fSx7IngiOjczMy40MTQwNjI1LCJ5Ijo1NTR9LHsieCI6NzMzLjQxNDA2MjUsInkiOjU5MX0seyJ4Ijo3MTkuMTA4OTk2OTc1ODA2NSwieSI6NjMxfV0=" data-look="classic" marker-start="url(#my-svg_class-aggregationStart)"/></g><g class="edgeLabels"><g class="edgeLabel" transform="translate(733.4140625, 262)"><g class="label" data-id="id_Skill_TypeTable_1" transform="translate(-23.359375, -12)"><foreignObject width="46.71875" height="24"><div xmlns="http://www.w3.org/1999/xhtml" class="labelBkg" style="display: table-cell; white-space: nowrap; line-height: 1.5; max-width: 200px; text-align: center;"><span class="edgeLabel"><p>"索引"</p></span></div></foreignObject></g></g><g class="edgeLabel" transform="translate(452.3359375, 262)"><g class="label" data-id="id_Skill_MmdcCli_2" transform="translate(-23.359375, -12)"><foreignObject width="46.71875" height="24"><div xmlns="http://www.w3.org/1999/xhtml" class="labelBkg" style="display: table-cell; white-space: nowrap; line-height: 1.5; max-width: 200px; text-align: center;"><span class="edgeLabel"><p>"调用"</p></span></div></foreignObject></g></g><g class="edgeLabel" transform="translate(495.6953125, 408)"><g class="label" data-id="id_Skill_LintRules_3" transform="translate(-23.359375, -12)"><foreignObject width="46.71875" height="24"><div xmlns="http://www.w3.org/1999/xhtml" class="labelBkg" style="display: table-cell; white-space: nowrap; line-height: 1.5; max-width: 200px; text-align: center;"><span class="edgeLabel"><p>"执行"</p></span></div></foreignObject></g></g><g class="edgeLabel" transform="translate(218.05859375, 554)"><g class="label" data-id="id_MmdcCli_LintRules_4" transform="translate(-39.359375, -12)"><foreignObject width="78.71875" height="24"><div xmlns="http://www.w3.org/1999/xhtml" class="labelBkg" style="display: table-cell; white-space: nowrap; line-height: 1.5; max-width: 200px; text-align: center;"><span class="edgeLabel"><p>"合并结果"</p></span></div></foreignObject></g></g><g class="edgeLabel" transform="translate(562.4140625, 408)"><g class="label" data-id="id_Skill_EncodedPrefs_5" transform="translate(-23.359375, -12)"><foreignObject width="46.71875" height="24"><div xmlns="http://www.w3.org/1999/xhtml" class="labelBkg" style="display: table-cell; white-space: nowrap; line-height: 1.5; max-width: 200px; text-align: center;"><span class="edgeLabel"><p>"遵守"</p></span></div></foreignObject></g></g><g class="edgeLabel" transform="translate(948.759765625, 408)"><g class="label" data-id="id_Skill_SelfCheck_6" transform="translate(-23.359375, -12)"><foreignObject width="46.71875" height="24"><div xmlns="http://www.w3.org/1999/xhtml" class="labelBkg" style="display: table-cell; white-space: nowrap; line-height: 1.5; max-width: 200px; text-align: center;"><span class="edgeLabel"><p>"自审"</p></span></div></foreignObject></g></g><g class="edgeLabel" transform="translate(733.4140625, 554)"><g class="label" data-id="id_TypeTable_EncodedPrefs_7" transform="translate(-23.359375, -12)"><foreignObject width="46.71875" height="24"><div xmlns="http://www.w3.org/1999/xhtml" class="labelBkg" style="display: table-cell; white-space: nowrap; line-height: 1.5; max-width: 200px; text-align: center;"><span class="edgeLabel"><p>"指向"</p></span></div></foreignObject></g></g><g class="edgeTerminals" transform="translate(718.41406125, 509.4999989285714)"><g class="inner" transform="translate(-3.5, -8.25)"><foreignObject width="7" height="16.5" style="width: 9px; height: 12px;"><div xmlns="http://www.w3.org/1999/xhtml" style="display: table-cell; white-space: nowrap; line-height: 1.5;"><span class="edgeLabel"><p>1</p></span></div></foreignObject></g></g><g class="edgeTerminals" transform="translate(734.125916359183, 614.5731510977482)"><g class="inner" transform="translate(-2.75, -8.25)"/><foreignObject width="5.5" height="16.5" style="width: 9px; height: 12px;"><div xmlns="http://www.w3.org/1999/xhtml" style="display: table-cell; white-space: nowrap; line-height: 1.5;"><span class="edgeLabel"><p>*</p></span></div></foreignObject></g></g><g class="nodes"><g class="node default" id="my-svg-classId-Skill-0" data-look="classic" transform="translate(606.759765625, 129)"><g class="basic label-container outer-path"><path d="M-126.23828125 -96 L126.23828125 -96 L126.23828125 96 L-126.23828125 96" stroke="none" stroke-width="0" fill="#ECECFF" style=""/><path d="M-126.23828125 -96 C-54.452551682529005 -96, 17.33317788494199 -96, 126.23828125 -96 M-126.23828125 -96 C-71.63929921284279 -96, -17.04031717568556 -96, 126.23828125 -96 M126.23828125 -96 C126.23828125 -20.49998176750077, 126.23828125 55.00003646499846, 126.23828125 96 M126.23828125 -96 C126.23828125 -56.30777645070223, 126.23828125 -16.615552901404456, 126.23828125 96 M126.23828125 96 C55.49139572055226 96, -15.255489808895476 96, -126.23828125 96 M126.23828125 96 C49.52109261499744 96, -27.196096020005115 96, -126.23828125 96 M-126.23828125 96 C-126.23828125 50.22429337154623, -126.23828125 4.448586743092463, -126.23828125 -96 M-126.23828125 96 C-126.23828125 30.62469504661847, -126.23828125 -34.75060990676306, -126.23828125 -96" stroke="#9370DB" stroke-width="1.3" fill="none" stroke-dasharray="0 0" style=""/></g><g class="annotation-group text" transform="translate(-25.2578125, -72)"><g class="label" style="" transform="translate(0,-12)"><foreignObject width="50.515625" height="24"><div xmlns="http://www.w3.org/1999/xhtml" style="display: table-cell; white-space: nowrap; line-height: 1.5; max-width: 99px; text-align: center;"><span class="nodeLabel markdown-node-label" style=""><p>«skill»</p></span></div></foreignObject></g></g><g class="label-group text" transform="translate(-19.3125, -48)"><g class="label" style="font-weight: bolder" transform="translate(0,-12)"><foreignObject width="38.625" height="24"><div xmlns="http://www.w3.org/1999/xhtml" style="display: table-cell; white-space: nowrap; line-height: 1.5; max-width: 81px; text-align: center;"><span class="nodeLabel markdown-node-label" style=""><p>Skill</p></span></div></foreignObject></g></g><g class="members-group text" transform="translate(-114.23828125, 0)"><g class="label" style="" transform="translate(0,-12)"><foreignObject width="109.796875" height="24"><div xmlns="http://www.w3.org/1999/xhtml" style="display: table-cell; white-space: nowrap; line-height: 1.5; max-width: 164px; text-align: center;"><span class="nodeLabel markdown-node-label" style=""><p>+string name</p></span></div></foreignObject></g><g class="label" style="" transform="translate(0,12)"><foreignObject width="123.03125" height="24"><div xmlns="http://www.w3.org/1999/xhtml" style="display: table-cell; white-space: nowrap; line-height: 1.5; max-width: 176px; text-align: center;"><span class="nodeLabel markdown-node-label" style=""><p>+string version</p></span></div></foreignObject></g></g><g class="methods-group text" transform="translate(-114.23828125, 72)"><g class="label" style="" transform="translate(0,-12)"><foreignObject width="203.21875" height="24"><div xmlns="http://www.w3.org/1999/xhtml" style="display: table-cell; white-space: nowrap; line-height: 1.5; max-width: 254px; text-align: center;"><span class="nodeLabel markdown-node-label" style=""><p>+list validate(code, type)</p></span></div></foreignObject></g></g><g class="divider" style=""><path d="M-126.23828125 -24 C-53.27184895572219 -23.99971099720476, 19.694583338555617 -23.999421994409527, 126.23828125 -23.999 M-126.23828125 -24 C-32.19137327905828 -23.999627502422246, 61.855534691883435 -23.99925500484449, 126.23828125 -23.999" stroke="#9370DB" stroke-width="1.3" fill="none" stroke-dasharray="0 0" style=""/></g><g class="divider" style=""><path d="M-126.23828125 48 C-66.89883524462297 48.00023502952281, -7.559389239245959 48.00047005904562, 126.23828125 48.001 M-126.23828125 48 C-26.13700803588398 48.00039647748774, 73.96426517823204 48.00079295497549, 126.23828125 48.001" stroke="#9370DB" stroke-width="1.3" fill="none" stroke-dasharray="0 0" style=""/></g></g><g class="node default" id="my-svg-classId-TypeTable-1" data-look="classic" transform="translate(733.4140625, 408)"><g class="basic label-container outer-path"><path d="M-112.640625 -84 L112.640625 -84 L112.640625 84 L-112.640625 84" stroke="none" stroke-width="0" fill="#ECECFF" style=""/><path d="M-112.640625 -84 C-45.81378151517923 -84, 21.01306196964154 -84, 112.640625 -84 M-112.640625 -84 C-46.84338995114986 -84, 18.95384509770028 -84, 112.640625 -84 M112.640625 -84 C112.640625 -46.7630121765189, 112.640625 -9.526024353037798, 112.640625 84 M112.640625 -84 C112.640625 -21.45188332699685, 112.640625 41.0962333460063, 112.640625 84 M112.640625 84 C30.52532576129063 84, -51.58997347741874 84, -112.640625 84 M112.640625 84 C27.446332724460362 84, -57.747959551079276 84, -112.640625 84 M-112.640625 84 C-112.640625 45.907578857051355, -112.640625 7.81515771410271, -112.640625 -84 M-112.640625 84 C-112.640625 45.8530357060162, -112.640625 7.706071412032401, -112.640625 -84" stroke="#9370DB" stroke-width="1.3" fill="none" stroke-dasharray="0 0" style=""/></g><g class="annotation-group text" transform="translate(-31.6796875, -60)"><g class="label" style="" transform="translate(0,-12)"><foreignObject width="63.359375" height="24"><div xmlns="http://www.w3.org/1999/xhtml" style="display: table-cell; white-space: nowrap; line-height: 1.5; max-width: 113px; text-align: center;"><span class="nodeLabel markdown-node-label" style=""><p>«index»</p></span></div></foreignObject></g></g><g class="label-group text" transform="translate(-44.59375, -36)"><g class="label" style="font-weight: bolder" transform="translate(0,-12)"><foreignObject width="89.1875" height="24"><div xmlns="http://www.w3.org/1999/xhtml" style="display: table-cell; white-space: nowrap; line-height: 1.5; max-width: 129px; text-align: center;"><span class="nodeLabel markdown-node-label" style=""><p>TypeTable</p></span></div></foreignObject></g></g><g class="members-group text" transform="translate(-100.640625, 12)"><g class="label" style="" transform="translate(0,-12)"><foreignObject width="86.078125" height="24"><div xmlns="http://www.w3.org/1999/xhtml" style="display: table-cell; white-space: nowrap; line-height: 1.5; max-width: 138px; text-align: center;"><span class="nodeLabel markdown-node-label" style=""><p>+list types</p></span></div></foreignObject></g></g><g class="methods-group text" transform="translate(-100.640625, 60)"><g class="label" style="" transform="translate(0,-12)"><foreignObject width="156.6875" height="24"><div xmlns="http://www.w3.org/1999/xhtml" style="display: table-cell; white-space: nowrap; line-height: 1.5; max-width: 208px; text-align: center;"><span class="nodeLabel markdown-node-label" style=""><p>+string pick(intent)</p></span></div></foreignObject></g></g><g class="divider" style=""><path d="M-112.640625 -12 C-24.6488236671467 -11.99960941356046, 63.3429776657066 -11.999218827120918, 112.640625 -11.999 M-112.640625 -12 C-50.48271629982886 -11.9997240875186, 11.675192400342283 -11.999448175037202, 112.640625 -11.999" stroke="#9370DB" stroke-width="1.3" fill="none" stroke-dasharray="0 0" style=""/></g><g class="divider" style=""><path d="M-112.640625 36 C-36.31950347350757 36.00033878150768, 40.00161805298487 36.00067756301535, 112.640625 36.001 M-112.640625 36 C-65.16926448472097 36.00021072042398, -17.697903969441953 36.000421440847965, 112.640625 36.001" stroke="#9370DB" stroke-width="1.3" fill="none" stroke-dasharray="0 0" style=""/></g></g><g class="node default" id="my-svg-classId-MmdcCli-2" data-look="classic" transform="translate(218.05859375, 408)"><g class="basic label-container outer-path"><path d="M-118.65625 -84 L118.65625 -84 L118.65625 84 L-118.65625 84" stroke="none" stroke-width="0" fill="#ECECFF" style=""/><path d="M-118.65625 -84 C-57.00815220784513 -84, 4.639945584309743 -84, 118.65625 -84 M-118.65625 -84 C-63.77762833549561 -84, -8.899006670991227 -84, 118.65625 -84 M118.65625 -84 C118.65625 -40.47355286049822, 118.65625 3.052894279003553, 118.65625 84 M118.65625 -84 C118.65625 -23.226133417257856, 118.65625 37.54773316548429, 118.65625 84 M118.65625 84 C32.93769435021048 84, -52.780861299579044 84, -118.65625 84 M118.65625 84 C31.203602845223102 84, -56.249044309553796 84, -118.65625 84 M-118.65625 84 C-118.65625 38.735968786033716, -118.65625 -6.528062427932568, -118.65625 -84 M-118.65625 84 C-118.65625 34.48153685908673, -118.65625 -15.036926281826538, -118.65625 -84" stroke="#9370DB" stroke-width="1.3" fill="none" stroke-dasharray="0 0" style=""/></g><g class="annotation-group text" transform="translate(-45.03125, -60)"><g class="label" style="" transform="translate(0,-12)"><foreignObject width="90.0625" height="24"><div xmlns="http://www.w3.org/1999/xhtml" style="display: table-cell; white-space: nowrap; line-height: 1.5; max-width: 140px; text-align: center;"><span class="nodeLabel markdown-node-label" style=""><p>«validator»</p></span></div></foreignObject></g></g><g class="label-group text" transform="translate(-38.125, -36)"><g class="label" style="font-weight: bolder" transform="translate(0,-12)"><foreignObject width="76.25" height="24"><div xmlns="http://www.w3.org/1999/xhtml" style="display: table-cell; white-space: nowrap; line-height: 1.5; max-width: 118px; text-align: center;"><span class="nodeLabel markdown-node-label" style=""><p>MmdcCli</p></span></div></foreignObject></g></g><g class="members-group text" transform="translate(-106.65625, 12)"><g class="label" style="" transform="translate(0,-12)"><foreignObject width="89.0625" height="24"><div xmlns="http://www.w3.org/1999/xhtml" style="display: table-cell; white-space: nowrap; line-height: 1.5; max-width: 144px; text-align: center;"><span class="nodeLabel markdown-node-label" style=""><p>+list errors</p></span></div></foreignObject></g></g><g class="methods-group text" transform="translate(-106.65625, 60)"><g class="label" style="" transform="translate(0,-12)"><foreignObject width="168.28125" height="24"><div xmlns="http://www.w3.org/1999/xhtml" style="display: table-cell; white-space: nowrap; line-height: 1.5; max-width: 223px; text-align: center;"><span class="nodeLabel markdown-node-label" style=""><p>+string render(code)</p></span></div></foreignObject></g></g><g class="divider" style=""><path d="M-118.65625 -12 C-67.0617060494815 -11.99978258817403, -15.467162098963001 -11.99956517634806, 118.65625 -11.999 M-118.65625 -12 C-66.05843335575885 -11.999778360530337, -13.460616711517702 -11.999556721060676, 118.65625 -11.999" stroke="#9370DB" stroke-width="1.3" fill="none" stroke-dasharray="0 0" style=""/></g><g class="divider" style=""><path d="M-118.65625 36 C-31.40875735067435 36.000367648112295, 55.8387352986513 36.00073529622459, 118.65625 36.001 M-118.65625 36 C-25.83002356500569 36.00039115607663, 66.99620286998862 36.000782312153255, 118.65625 36.001" stroke="#9370DB" stroke-width="1.3" fill="none" stroke-dasharray="0 0" style=""/></g></g><g class="node default" id="my-svg-classId-LintRules-3" data-look="classic" transform="translate(188.37890625, 715)"><g class="basic label-container outer-path"><path d="M-145.37890625 -99 L145.37890625 -99 L145.37890625 99 L-145.37890625 99" stroke="none" stroke-width="0" fill="#ECECFF" style=""/><path d="M-145.37890625 -99 C-69.63165594173871 -99, 6.115594366522572 -99, 145.37890625 -99 M-145.37890625 -99 C-29.626609969404072 -99, 86.12568631119186 -99, 145.37890625 -99 M145.37890625 -99 C145.37890625 -30.84226227338283, 145.37890625 37.31547545323434, 145.37890625 99 M145.37890625 -99 C145.37890625 -32.353483443184786, 145.37890625 34.29303311363043, 145.37890625 99 M145.37890625 99 C31.854079792125347 99, -81.6707466657493 99, -145.37890625 99 M145.37890625 99 C78.22060642565839 99, 11.062306601316777 99, -145.37890625 99 M-145.37890625 99 C-145.37890625 42.69020331683083, -145.37890625 -13.619593366338336, -145.37890625 -99 M-145.37890625 99 C-145.37890625 29.013215093377056, -145.37890625 -40.97356981324589, -145.37890625 -99" stroke="#9370DB" stroke-width="1.3" fill="none" stroke-dasharray="0 0" style=""/></g><g class="annotation-group text" transform="translate(-22.4453125, -75)"><g class="label" style="" transform="translate(0,-12)"><foreignObject width="44.890625" height="24"><div xmlns="http://www.w3.org/1999/xhtml" style="display: table-cell; white-space: nowrap; line-height: 1.5; max-width: 94px; text-align: center;"><span class="nodeLabel markdown-node-label" style=""><p>«lint»</p></span></div></foreignObject></g></g><g class="label-group text" transform="translate(-42.1484375, -51)"><g class="label" style="font-weight: bolder" transform="translate(0,-12)"><foreignObject width="84.296875" height="24"><div xmlns="http://www.w3.org/1999/xhtml" style="display: table-cell; white-space: nowrap; line-height: 1.5; max-width: 121px; text-align: center;"><span class="nodeLabel markdown-node-label" style=""><p>LintRules</p></span></div></foreignObject></g></g><g class="members-group text" transform="translate(-133.37890625, -3)"/><g class="methods-group text" transform="translate(-133.37890625, 27)"><g class="label" style="" transform="translate(0,-12)"><foreignObject width="199.65625" height="24"><div xmlns="http://www.w3.org/1999/xhtml" style="display: table-cell; white-space: nowrap; line-height: 1.5; max-width: 253px; text-align: center;"><span class="nodeLabel markdown-node-label" style=""><p>+bool noSemicolon(text)</p></span></div></foreignObject></g><g class="label" style="" transform="translate(0,12)"><foreignObject width="204.59375" height="24"><div xmlns="http://www.w3.org/1999/xhtml" style="display: table-cell; white-space: nowrap; line-height: 1.5; max-width: 257px; text-align: center;"><span class="nodeLabel markdown-node-label" style=""><p>+bool quotedLabels(text)</p></span></div></foreignObject></g><g class="label" style="" transform="translate(0,36)"><foreignObject width="224.609375" height="24"><div xmlns="http://www.w3.org/1999/xhtml" style="display: table-cell; white-space: nowrap; line-height: 1.5; max-width: 278px; text-align: center;"><span class="nodeLabel markdown-node-label" style=""><p>+bool hasAutonumber(text)</p></span></div></foreignObject></g></g><g class="divider" style=""><path d="M-145.37890625 -27 C-41.9439540458457 -26.999644257358675, 61.4909981583086 -26.999288514717353, 145.37890625 -26.999 M-145.37890625 -27 C-66.83320137411395 -26.999729858660718, 11.71250350177209 -26.999459717321432, 145.37890625 -26.999" stroke="#9370DB" stroke-width="1.3" fill="none" stroke-dasharray="0 0" style=""/></g><g class="divider" style=""><path d="M-145.37890625 -3 C-34.13264337847782 -2.9996173920077505, 77.11361949304435 -2.999234784015501, 145.37890625 -2.999 M-145.37890625 -3 C-78.77667289413822 -2.999770935704932, -12.174439538276431 -2.9995418714098636, 145.37890625 -2.999" stroke="#9370DB" stroke-width="1.3" fill="none" stroke-dasharray="0 0" style=""/></g></g><g class="node default" id="my-svg-classId-EncodedPrefs-4" data-look="classic" transform="translate(689.068359375, 715)"><g class="basic label-container outer-path"><path d="M-108.07421875 -84 L108.07421875 -84 L108.07421875 84 L-108.07421875 84" stroke="none" stroke-width="0" fill="#ECECFF" style=""/><path d="M-108.07421875 -84 C-44.367787198962205 -84, 19.33864435207559 -84, 108.07421875 -84 M-108.07421875 -84 C-60.243718031475176 -84, -12.413217312950351 -84, 108.07421875 -84 M108.07421875 -84 C108.07421875 -18.713781017552208, 108.07421875 46.572437964895585, 108.07421875 84 M108.07421875 -84 C108.07421875 -31.42960502786663, 108.07421875 21.140789944266743, 108.07421875 84 M108.07421875 84 C64.74292871322224 84, 21.411638676444483 84, -108.07421875 84 M108.07421875 84 C43.47508762739986 84, -21.124043495200283 84, -108.07421875 84 M-108.07421875 84 C-108.07421875 20.668044325428113, -108.07421875 -42.663911349143774, -108.07421875 -84 M-108.07421875 84 C-108.07421875 45.52707847527344, -108.07421875 7.054156950546883, -108.07421875 -84" stroke="#9370DB" stroke-width="1.3" fill="none" stroke-dasharray="0 0" style=""/></g><g class="annotation-group text" transform="translate(-24.1640625, -60)"><g class="label" style="" transform="translate(0,-12)"><foreignObject width="48.328125" height="24"><div xmlns="http://www.w3.org/1999/xhtml" style="display: table-cell; white-space: nowrap; line-height: 1.5; max-width: 99px; text-align: center;"><span class="nodeLabel markdown-node-label" style=""><p>«doc»</p></span></div></foreignObject></g></g><g class="label-group text" transform="translate(-61.7578125, -36)"><g class="label" style="font-weight: bolder" transform="translate(0,-12)"><foreignObject width="123.515625" height="24"><div xmlns="http://www.w3.org/1999/xhtml" style="display: table-cell; white-space: nowrap; line-height: 1.5; max-width: 160px; text-align: center;"><span class="nodeLabel markdown-node-label" style=""><p>EncodedPrefs</p></span></div></foreignObject></g></g><g class="members-group text" transform="translate(-96.07421875, 12)"><g class="label" style="" transform="translate(0,-12)"><foreignObject width="125.53125" height="24"><div xmlns="http://www.w3.org/1999/xhtml" style="display: table-cell; white-space: nowrap; line-height: 1.5; max-width: 178px; text-align: center;"><span class="nodeLabel markdown-node-label" style=""><p>+string quoting</p></span></div></foreignObject></g><g class="label" style="" transform="translate(0,12)"><foreignObject width="130.390625" height="24"><div xmlns="http://www.w3.org/1999/xhtml" style="display: table-cell; white-space: nowrap; line-height: 1.5; max-width: 184px; text-align: center;"><span class="nodeLabel markdown-node-label" style=""><p>+string rectRule</p></span></div></foreignObject></g></g><g class="methods-group text" transform="translate(-96.07421875, 84)"/><g class="divider" style=""><path d="M-108.07421875 -12 C-41.26694736350116 -11.999690919480338, 25.54032402299768 -11.999381838960678, 108.07421875 -11.999 M-108.07421875 -12 C-46.648999400637955 -11.999715819276513, 14.77621994872409 -11.999431638553027, 108.07421875 -11.999" stroke="#9370DB" stroke-width="1.3" fill="none" stroke-dasharray="0 0" style=""/></g><g class="divider" style=""><path d="M-108.07421875 60 C-56.846452469688316 60.000237002713845, -5.618686189376632 60.000474005427684, 108.07421875 60.001 M-108.07421875 60 C-43.85928590824578 60.00029708719426, 20.35564693350844 60.00059417438853, 108.07421875 60.001" stroke="#9370DB" stroke-width="1.3" fill="none" stroke-dasharray="0 0" style=""/></g></g><g class="node default" id="my-svg-classId-SelfCheck-5" data-look="classic" transform="translate(948.759765625, 715)"><g class="basic label-container outer-path"><path d="M-101.6171875 -72 L101.6171875 -72 L101.6171875 72 L-101.6171875 72" stroke="none" stroke-width="0" fill="#ECECFF" style=""/><path d="M-101.6171875 -72 C-24.916191000489803 -72, 51.78480549902039 -72, 101.6171875 -72 M-101.6171875 -72 C-52.83891693503985 -72, -4.060646370079695 -72, 101.6171875 -72 M101.6171875 -72 C101.6171875 -33.50352450070277, 101.6171875 4.992950998594466, 101.6171875 72 M101.6171875 -72 C101.6171875 -21.043826080334185, 101.6171875 29.91234783933163, 101.6171875 72 M101.6171875 72 C27.295380493006903 72, -47.026426513986195 72, -101.6171875 72 M101.6171875 72 C26.37646504686684 72, -48.86425740626632 72, -101.6171875 72 M-101.6171875 72 C-101.6171875 19.504456521167192, -101.6171875 -32.991086957665615, -101.6171875 -72 M-101.6171875 72 C-101.6171875 32.343426812141765, -101.6171875 -7.313146375716471, -101.6171875 -72" stroke="#9370DB" stroke-width="1.3" fill="none" stroke-dasharray="0 0" style=""/></g><g class="annotation-group text" transform="translate(-24.1640625, -48)"><g class="label" style="" transform="translate(0,-12)"><foreignObject width="48.328125" height="24"><div xmlns="http://www.w3.org/1999/xhtml" style="display: table-cell; white-space: nowrap; line-height: 1.5; max-width: 99px; text-align: center;"><span class="nodeLabel markdown-node-label" style=""><p>«doc»</p></span></div></foreignObject></g></g><g class="label-group text" transform="translate(-44.46875, -24)"><g class="label" style="font-weight: bolder" transform="translate(0,-12)"><foreignObject width="88.9375" height="24"><div xmlns="http://www.w3.org/1999/xhtml" style="display: table-cell; white-space: nowrap; line-height: 1.5; max-width: 130px; text-align: center;"><span class="nodeLabel markdown-node-label" style=""><p>SelfCheck</p></span></div></foreignObject></g></g><g class="members-group text" transform="translate(-89.6171875, 24)"><g class="label" style="" transform="translate(0,-12)"><foreignObject width="134.765625" height="24"><div xmlns="http://www.w3.org/1999/xhtml" style="display: table-cell; white-space: nowrap; line-height: 1.5; max-width: 187px; text-align: center;"><span class="nodeLabel markdown-node-label" style=""><p>+string checklist</p></span></div></foreignObject></g></g><g class="methods-group text" transform="translate(-89.6171875, 72)"/><g class="divider" style=""><path d="M-101.6171875 0 C-58.73109803518643 0.00021101789234628037, -15.845008570372855 0.00042203578469256073, 101.6171875 0.001 M-101.6171875 0 C-34.57404001492003 0.0003298809440336064, 32.46910747015994 0.0006597618880672128, 101.6171875 0.001" stroke="#9370DB" stroke-width="1.3" fill="none" stroke-dasharray="0 0" style=""/></g><g class="divider" style=""><path d="M-101.6171875 48 C-38.891896755311514 48.00030863524315, 23.833393989376972 48.0006172704863, 101.6171875 48.001 M-101.6171875 48 C-41.932922782856245 48.00029367209517, 17.75134193428751 48.00058734419034, 101.6171875 48.001" stroke="#9370DB" stroke-width="1.3" fill="none" stroke-dasharray="0 0" style=""/></g></g></g></g></g><defs><filter id="my-svg-drop-shadow" height="130%" width="130%"><feDropShadow dx="4" dy="4" stdDeviation="0" flood-opacity="0.06" flood-color="#000000"/></filter></defs><defs><filter id="my-svg-drop-shadow-small" height="150%" width="150%"><feDropShadow dx="2" dy="2" stdDeviation="0" flood-opacity="0.06" flood-color="#000000"/></filter></defs></svg>