<svg id="my-svg" width="100%" xmlns="http://www.w3.org/2000/svg" xmlns:xlink="http://www.w3.org/1999/xlink" class="requirementDiagram" style="max-width: 2037.08px; background-color: white;" viewBox="0 0 2037.078125 668" role="graphics-document document" aria-roledescription="requirement"><style>#my-svg{font-family:"trebuchet ms",verdana,arial,sans-serif;font-size:16px;fill:#333;}@keyframes edge-animation-frame{from{stroke-dashoffset:0;}}@keyframes dash{to{stroke-dashoffset:0;}}#my-svg .edge-animation-slow{stroke-dasharray:9,5!important;stroke-dashoffset:900;animation:dash 50s linear infinite;stroke-linecap:round;}#my-svg .edge-animation-fast{stroke-dasharray:9,5!important;stroke-dashoffset:900;animation:dash 20s linear infinite;stroke-linecap:round;}#my-svg .error-icon{fill:#552222;}#my-svg .error-text{fill:#552222;stroke:#552222;}#my-svg .edge-thickness-normal{stroke-width:1px;}#my-svg .edge-thickness-thick{stroke-width:3.5px;}#my-svg .edge-pattern-solid{stroke-dasharray:0;}#my-svg .edge-thickness-invisible{stroke-width:0;fill:none;}#my-svg .edge-pattern-dashed{stroke-dasharray:3;}#my-svg .edge-pattern-dotted{stroke-dasharray:2;}#my-svg .marker{fill:#333333;stroke:#333333;}#my-svg .marker.cross{stroke:#333333;}#my-svg svg{font-family:"trebuchet ms",verdana,arial,sans-serif;font-size:16px;}#my-svg p{margin:0;}#my-svg marker{fill:#333333;stroke:#333333;}#my-svg marker.cross{stroke:#333333;}#my-svg svg{font-family:"trebuchet ms",verdana,arial,sans-serif;font-size:16px;}#my-svg .reqBox{fill:#ECECFF;fill-opacity:1.0;stroke:hsl(240, 60%, 86.2745098039%);stroke-width:1;}#my-svg .reqTitle,#my-svg .reqLabel{fill:#131300;}#my-svg .reqLabelBox{fill:rgba(232,232,232, 0.8);fill-opacity:1.0;}#my-svg .req-title-line{stroke:hsl(240, 60%, 86.2745098039%);stroke-width:1;}#my-svg .relationshipLine{stroke:#333333;stroke-width:1px;}#my-svg .relationshipLabel{fill:black;}#my-svg .edgeLabel{background-color:rgba(232,232,232, 0.8);}#my-svg .edgeLabel .label rect{fill:rgba(232,232,232, 0.8);}#my-svg .edgeLabel .label text{fill:black;}#my-svg .divider{stroke:#9370DB;stroke-width:1;}#my-svg .label{font-family:"trebuchet ms",verdana,arial,sans-serif;color:#333;}#my-svg .label text,#my-svg span{fill:#333;color:#333;}#my-svg .labelBkg{background-color:rgba(232,232,232, 0.8);}#my-svg .node .neo-node{stroke:#9370DB;}#my-svg [data-look="neo"].node rect,#my-svg [data-look="neo"].cluster rect,#my-svg [data-look="neo"].node polygon{stroke:#9370DB;filter:drop-shadow(1px 2px 2px rgba(185, 185, 185, 1));}#my-svg [data-look="neo"].node path{stroke:#9370DB;stroke-width:1px;}#my-svg [data-look="neo"].node .outer-path{filter:drop-shadow(1px 2px 2px rgba(185, 185, 185, 1));}#my-svg [data-look="neo"].node .neo-line path{stroke:#9370DB;filter:none;}#my-svg [data-look="neo"].node circle{stroke:#9370DB;filter:drop-shadow(1px 2px 2px rgba(185, 185, 185, 1));}#my-svg [data-look="neo"].node circle .state-start{fill:#000000;}#my-svg [data-look="neo"].icon-shape .icon{fill:#9370DB;filter:drop-shadow(1px 2px 2px rgba(185, 185, 185, 1));}#my-svg [data-look="neo"].icon-shape .icon-neo path{stroke:#9370DB;filter:drop-shadow(1px 2px 2px rgba(185, 185, 185, 1));}#my-svg :root{--mermaid-font-family:"trebuchet ms",verdana,arial,sans-serif;}</style><g><defs><marker id="my-svg_requirement-requirement_containsStart" refX="0" refY="10" markerWidth="20" markerHeight="20" orient="auto"><g><circle cx="10" cy="10" r="9" fill="none"/><line x1="1" x2="19" y1="10" y2="10"/><line y1="1" y2="19" x1="10" x2="10"/></g></marker></defs><defs><marker id="my-svg_requirement-requirement_arrowEnd" refX="20" refY="10" markerWidth="20" markerHeight="20" orient="auto"><path d="M0,0&#10;      L20,10&#10;      M20,10&#10;      L0,20"/></marker></defs><g class="root"><g class="clusters"/><g class="edgePaths"><path d="M1146.047,89.266L1267.982,104.555C1389.917,119.844,1633.786,150.422,1755.721,171.878C1877.656,193.333,1877.656,205.667,1877.656,211.833L1877.656,218" id="my-svg-lint_rules-req_quote-0" class="edge-thickness-normal edge-pattern-dashed relationshipLine" style="fill:none;stroke-dasharray: 10,7;;;fill:none;stroke-dasharray: 10,7" data-edge="true" data-et="edge" data-id="lint_rules-req_quote-0" data-points="W3sieCI6MTE0Ni4wNDY4NzUsInkiOjg5LjI2NjQyNjU5MjI4MDkyfSx7IngiOjE4NzcuNjU2MjUsInkiOjE4MX0seyJ4IjoxODc3LjY1NjI1LCJ5IjoyMTh9XQ==" data-look="classic" marker-end="url(#my-svg_requirement-requirement_arrowEnd)"/><path d="M934.438,98.733L870.622,112.444C806.807,126.155,679.177,153.578,615.362,173.455C551.547,193.333,551.547,205.667,551.547,211.833L551.547,218" id="my-svg-lint_rules-req_semicolon-0" class="edge-thickness-normal edge-pattern-dashed relationshipLine" style="fill:none;stroke-dasharray: 10,7;;;fill:none;stroke-dasharray: 10,7" data-edge="true" data-et="edge" data-id="lint_rules-req_semicolon-0" data-points="W3sieCI6OTM0LjQzNzUsInkiOjk4LjczMjk2MjQ0Nzg0NDIzfSx7IngiOjU1MS41NDY4NzUsInkiOjE4MX0seyJ4Ijo1NTEuNTQ2ODc1LCJ5IjoyMTh9XQ==" data-look="classic" marker-end="url(#my-svg_requirement-requirement_arrowEnd)"/><path d="M934.438,138.575L922.482,145.646C910.526,152.717,886.615,166.858,874.659,180.096C862.703,193.333,862.703,205.667,862.703,211.833L862.703,218" id="my-svg-lint_rules-req_autonumber-0" class="edge-thickness-normal edge-pattern-dashed relationshipLine" style="fill:none;stroke-dasharray: 10,7;;;fill:none;stroke-dasharray: 10,7" data-edge="true" data-et="edge" data-id="lint_rules-req_autonumber-0" data-points="W3sieCI6OTM0LjQzNzUsInkiOjEzOC41NzQ5MTc0OTE3NDkxOH0seyJ4Ijo4NjIuNzAzMTI1LCJ5IjoxODF9LHsieCI6ODYyLjcwMzEyNSwieSI6MjE4fV0=" data-look="classic" marker-end="url(#my-svg_requirement-requirement_arrowEnd)"/><path d="M1146.047,138.575L1158.003,145.646C1169.958,152.717,1193.87,166.858,1205.826,180.096C1217.781,193.333,1217.781,205.667,1217.781,211.833L1217.781,218" id="my-svg-lint_rules-req_rect-0" class="edge-thickness-normal edge-pattern-dashed relationshipLine" style="fill:none;stroke-dasharray: 10,7;;;fill:none;stroke-dasharray: 10,7" data-edge="true" data-et="edge" data-id="lint_rules-req_rect-0" data-points="W3sieCI6MTE0Ni4wNDY4NzUsInkiOjEzOC41NzQ5MTc0OTE3NDkxOH0seyJ4IjoxMjE3Ljc4MTI1LCJ5IjoxODF9LHsieCI6MTIxNy43ODEyNSwieSI6MjE4fV0=" data-look="classic" marker-end="url(#my-svg_requirement-requirement_arrowEnd)"/><path d="M199.063,378L199.063,388.167C199.063,398.333,199.063,418.667,402.172,448.233C605.281,477.799,1011.5,516.597,1214.609,535.997L1417.719,555.396" id="my-svg-skill_docs-req_type-0" class="edge-thickness-normal edge-pattern-dashed relationshipLine" style="fill:none;stroke-dasharray: 10,7;;;fill:none;stroke-dasharray: 10,7" data-edge="true" data-et="edge" data-id="skill_docs-req_type-0" data-points="W3sieCI6MTk5LjA2MjUsInkiOjM3OH0seyJ4IjoxOTkuMDYyNSwieSI6NDM5fSx7IngiOjE0MTcuNzE4NzUsInkiOjU1NS4zOTYxNjE0NzcxMDI1fV0=" data-look="classic" marker-end="url(#my-svg_requirement-requirement_arrowEnd)"/><path d="M1549.68,378L1549.68,388.167C1549.68,398.333,1549.68,418.667,1549.68,435C1549.68,451.333,1549.68,463.667,1549.68,469.833L1549.68,476" id="my-svg-mmdc_gate-req_type-0" class="edge-thickness-normal edge-pattern-dashed relationshipLine" style="fill:none;stroke-dasharray: 10,7;;;fill:none;stroke-dasharray: 10,7" data-edge="true" data-et="edge" data-id="mmdc_gate-req_type-0" data-points="W3sieCI6MTU0OS42Nzk2ODc1LCJ5IjozNzh9LHsieCI6MTU0OS42Nzk2ODc1LCJ5Ijo0Mzl9LHsieCI6MTU0OS42Nzk2ODc1LCJ5Ijo0NzZ9XQ==" data-look="classic" marker-end="url(#my-svg_requirement-requirement_arrowEnd)"/><path d="M1877.656,402L1877.656,408.167C1877.656,414.333,1877.656,426.667,1844.987,445.683C1812.318,464.699,1746.979,490.398,1714.31,503.248L1681.641,516.097" id="my-svg-req_quote-req_type-0" class="edge-thickness-normal edge-pattern-dashed relationshipLine" style="fill:none;stroke-dasharray: 10,7;;;fill:none;stroke-dasharray: 10,7" data-edge="true" data-et="edge" data-id="req_quote-req_type-0" data-points="W3sieCI6MTg3Ny42NTYyNSwieSI6NDAyfSx7IngiOjE4NzcuNjU2MjUsInkiOjQzOX0seyJ4IjoxNjgxLjY0MDYyNSwieSI6NTE2LjA5NzAyMDA4MDUxMjZ9XQ==" data-look="classic" marker-end="url(#my-svg_requirement-requirement_arrowEnd)"/></g><g class="edgeLabels"><g class="edgeLabel" transform="translate(1877.65625, 181)"><g class="label" data-id="lint_rules-req_quote-0" transform="translate(-59.5390625, -12)"><foreignObject width="119.078125" height="24"><div xmlns="http://www.w3.org/1999/xhtml" class="labelBkg" style="display: table-cell; white-space: nowrap; line-height: 1.5; max-width: 200px; text-align: center;"><span class="edgeLabel"><p>&lt;&lt;satisfies&gt;&gt;</p></span></div></foreignObject></g></g><g class="edgeLabel" transform="translate(551.546875, 181)"><g class="label" data-id="lint_rules-req_semicolon-0" transform="translate(-59.5390625, -12)"><foreignObject width="119.078125" height="24"><div xmlns="http://www.w3.org/1999/xhtml" class="labelBkg" style="display: table-cell; white-space: nowrap; line-height: 1.5; max-width: 200px; text-align: center;"><span class="edgeLabel"><p>&lt;&lt;satisfies&gt;&gt;</p></span></div></foreignObject></g></g><g class="edgeLabel" transform="translate(862.703125, 181)"><g class="label" data-id="lint_rules-req_autonumber-0" transform="translate(-59.5390625, -12)"><foreignObject width="119.078125" height="24"><div xmlns="http://www.w3.org/1999/xhtml" class="labelBkg" style="display: table-cell; white-space: nowrap; line-height: 1.5; max-width: 200px; text-align: center;"><span class="edgeLabel"><p>&lt;&lt;satisfies&gt;&gt;</p></span></div></foreignObject></g></g><g class="edgeLabel" transform="translate(1217.78125, 181)"><g class="label" data-id="lint_rules-req_rect-0" transform="translate(-59.5390625, -12)"><foreignObject width="119.078125" height="24"><div xmlns="http://www.w3.org/1999/xhtml" class="labelBkg" style="display: table-cell; white-space: nowrap; line-height: 1.5; max-width: 200px; text-align: center;"><span class="edgeLabel"><p>&lt;&lt;satisfies&gt;&gt;</p></span></div></foreignObject></g></g><g class="edgeLabel" transform="translate(199.0625, 439)"><g class="label" data-id="skill_docs-req_type-0" transform="translate(-54.046875, -12)"><foreignObject width="108.09375" height="24"><div xmlns="http://www.w3.org/1999/xhtml" class="labelBkg" style="display: table-cell; white-space: nowrap; line-height: 1.5; max-width: 200px; text-align: center;"><span class="edgeLabel"><p>&lt;&lt;refines&gt;&gt;</p></span></div></foreignObject></g></g><g class="edgeLabel" transform="translate(1549.6796875, 439)"><g class="label" data-id="mmdc_gate-req_type-0" transform="translate(-56.109375, -12)"><foreignObject width="112.21875" height="24"><div xmlns="http://www.w3.org/1999/xhtml" class="labelBkg" style="display: table-cell; white-space: nowrap; line-height: 1.5; max-width: 200px; text-align: center;"><span class="edgeLabel"><p>&lt;&lt;verifies&gt;&gt;</p></span></div></foreignObject></g></g><g class="edgeLabel" transform="translate(1877.65625, 439)"><g class="label" data-id="req_quote-req_type-0" transform="translate(-56.1484375, -12)"><foreignObject width="112.296875" height="24"><div xmlns="http://www.w3.org/1999/xhtml" class="labelBkg" style="display: table-cell; white-space: nowrap; line-height: 1.5; max-width: 200px; text-align: center;"><span class="edgeLabel"><p>&lt;&lt;derives&gt;&gt;</p></span></div></foreignObject></g></g></g><g class="nodes"><g class="node default" id="my-svg-req_quote" data-look="classic" transform="translate(1877.65625, 310)"><g class="basic label-container outer-path" style=""><path d="M-151.421875 -92 L151.421875 -92 L151.421875 92 L-151.421875 92" stroke="none" stroke-width="0" fill="#ECECFF"/><path d="M-151.421875 -92 C-56.85657478432229 -92, 37.70872543135542 -92, 151.421875 -92 M-151.421875 -92 C-62.70857977628812 -92, 26.004715447423763 -92, 151.421875 -92 M151.421875 -92 C151.421875 -49.16713143325, 151.421875 -6.334262866499998, 151.421875 92 M151.421875 -92 C151.421875 -31.2750404044373, 151.421875 29.449919191125403, 151.421875 92 M151.421875 92 C70.39393937979234 92, -10.633996240415314 92, -151.421875 92 M151.421875 92 C62.79751663032857 92, -25.826841739342854 92, -151.421875 92 M-151.421875 92 C-151.421875 54.41445884073012, -151.421875 16.82891768146024, -151.421875 -92 M-151.421875 92 C-151.421875 25.84917739280459, -151.421875 -40.30164521439082, -151.421875 -92" stroke="#9370DB" stroke-width="1.3" fill="none" stroke-dasharray="0 0"/></g><g class="label" style="" transform="translate(-98.453125, -84)"><foreignObject width="196.90625" height="24"><div xmlns="http://www.w3.org/1999/xhtml" style="display: table-cell; white-space: nowrap; line-height: 1.5; max-width: 311px; text-align: center;"><span class="nodeLabel markdown-node-label"><p>&lt;&lt;Design Constraint&gt;&gt;</p></span></div></foreignObject></g><g class="label" style="; font-weight: bold;" transform="translate(-45.265625, -60)"><foreignObject width="90.53125" height="24"><div style="font-weight: bold; display: table-cell; white-space: nowrap; line-height: 1.5; max-width: 131px; text-align: center;" xmlns="http://www.w3.org/1999/xhtml"><span style="; font-weight: bold;" class="nodeLabel markdown-node-label"><p>req_quote</p></span></div></foreignObject></g><g class="label" style="" transform="translate(-141.421875, -16)"><foreignObject width="77.734375" height="24"><div xmlns="http://www.w3.org/1999/xhtml" style="display: table-cell; white-space: nowrap; line-height: 1.5; max-width: 127px; text-align: center;"><span class="nodeLabel markdown-node-label"><p>ID: REQ-1</p></span></div></foreignObject></g><g class="label" style="" transform="translate(-141.421875, 8)"><foreignObject width="282.84375" height="24"><div xmlns="http://www.w3.org/1999/xhtml" style="display: table-cell; white-space: nowrap; line-height: 1.5; max-width: 333px; text-align: center;"><span class="nodeLabel markdown-node-label"><p>Text: 所有文本字面量必须用双引号包裹</p></span></div></foreignObject></g><g class="label" style="" transform="translate(-141.421875, 32)"><foreignObject width="80.421875" height="24"><div xmlns="http://www.w3.org/1999/xhtml" style="display: table-cell; white-space: nowrap; line-height: 1.5; max-width: 128px; text-align: center;"><span class="nodeLabel markdown-node-label"><p>Risk: High</p></span></div></foreignObject></g><g class="label" style="" transform="translate(-141.421875, 56)"><foreignObject width="183.015625" height="24"><div xmlns="http://www.w3.org/1999/xhtml" style="display: table-cell; white-space: nowrap; line-height: 1.5; max-width: 232px; text-align: center;"><span class="nodeLabel markdown-node-label"><p>Verification: Inspection</p></span></div></foreignObject></g><g class="divider"><path d="M-151.421875 -24 C-42.2896498894531 -24, 66.8425752210938 -24, 151.421875 -24 M-151.421875 -24 C-68.86533335179719 -24, 13.69120829640562 -24, 151.421875 -24" stroke="#9370DB" stroke-width="1.3" fill="none" stroke-dasharray="0 0"/></g></g><g class="node default" id="my-svg-req_semicolon" data-look="classic" transform="translate(551.546875, 310)"><g class="basic label-container outer-path" style=""><path d="M-111.421875 -92 L111.421875 -92 L111.421875 92 L-111.421875 92" stroke="none" stroke-width="0" fill="#ECECFF"/><path d="M-111.421875 -92 C-50.78858706124346 -92, 9.844700877513077 -92, 111.421875 -92 M-111.421875 -92 C-38.53485068058468 -92, 34.352173638830635 -92, 111.421875 -92 M111.421875 -92 C111.421875 -26.45082955806342, 111.421875 39.09834088387316, 111.421875 92 M111.421875 -92 C111.421875 -29.78152656986247, 111.421875 32.43694686027506, 111.421875 92 M111.421875 92 C55.72964799417129 92, 0.0374209883425749 92, -111.421875 92 M111.421875 92 C44.13755275709008 92, -23.146769485819846 92, -111.421875 92 M-111.421875 92 C-111.421875 19.173002017460433, -111.421875 -53.65399596507913, -111.421875 -92 M-111.421875 92 C-111.421875 22.266697002498546, -111.421875 -47.46660599500291, -111.421875 -92" stroke="#9370DB" stroke-width="1.3" fill="none" stroke-dasharray="0 0"/></g><g class="label" style="" transform="translate(-98.453125, -84)"><foreignObject width="196.90625" height="24"><div xmlns="http://www.w3.org/1999/xhtml" style="display: table-cell; white-space: nowrap; line-height: 1.5; max-width: 311px; text-align: center;"><span class="nodeLabel markdown-node-label"><p>&lt;&lt;Design Constraint&gt;&gt;</p></span></div></foreignObject></g><g class="label" style="; font-weight: bold;" transform="translate(-64.5390625, -60)"><foreignObject width="129.078125" height="24"><div style="font-weight: bold; display: table-cell; white-space: nowrap; line-height: 1.5; max-width: 166px; text-align: center;" xmlns="http://www.w3.org/1999/xhtml"><span style="; font-weight: bold;" class="nodeLabel markdown-node-label"><p>req_semicolon</p></span></div></foreignObject></g><g class="label" style="" transform="translate(-101.421875, -16)"><foreignObject width="77.734375" height="24"><div xmlns="http://www.w3.org/1999/xhtml" style="display: table-cell; white-space: nowrap; line-height: 1.5; max-width: 127px; text-align: center;"><span class="nodeLabel markdown-node-label"><p>ID: REQ-2</p></span></div></foreignObject></g><g class="label" style="" transform="translate(-101.421875, 8)"><foreignObject width="202.84375" height="24"><div xmlns="http://www.w3.org/1999/xhtml" style="display: table-cell; white-space: nowrap; line-height: 1.5; max-width: 253px; text-align: center;"><span class="nodeLabel markdown-node-label"><p>Text: 任何位置不得出现分号</p></span></div></foreignObject></g><g class="label" style="" transform="translate(-101.421875, 32)"><foreignObject width="80.421875" height="24"><div xmlns="http://www.w3.org/1999/xhtml" style="display: table-cell; white-space: nowrap; line-height: 1.5; max-width: 128px; text-align: center;"><span class="nodeLabel markdown-node-label"><p>Risk: High</p></span></div></foreignObject></g><g class="label" style="" transform="translate(-101.421875, 56)"><foreignObject width="183.015625" height="24"><div xmlns="http://www.w3.org/1999/xhtml" style="display: table-cell; white-space: nowrap; line-height: 1.5; max-width: 232px; text-align: center;"><span class="nodeLabel markdown-node-label"><p>Verification: Inspection</p></span></div></foreignObject></g><g class="divider"><path d="M-111.421875 -24 C-49.06889902153592 -24, 13.28407695692816 -24, 111.421875 -24 M-111.421875 -24 C-57.000359326585006 -24, -2.5788436531700114 -24, 111.421875 -24" stroke="#9370DB" stroke-width="1.3" fill="none" stroke-dasharray="0 0"/></g></g><g class="node default" id="my-svg-req_autonumber" data-look="classic" transform="translate(862.703125, 310)"><g class="basic label-container outer-path" style=""><path d="M-149.734375 -92 L149.734375 -92 L149.734375 92 L-149.734375 92" stroke="none" stroke-width="0" fill="#ECECFF"/><path d="M-149.734375 -92 C-34.88306598010662 -92, 79.96824303978676 -92, 149.734375 -92 M-149.734375 -92 C-47.06939189095377 -92, 55.595591218092466 -92, 149.734375 -92 M149.734375 -92 C149.734375 -40.49077087493353, 149.734375 11.018458250132937, 149.734375 92 M149.734375 -92 C149.734375 -53.272931106413864, 149.734375 -14.545862212827728, 149.734375 92 M149.734375 92 C29.976424369051372 92, -89.78152626189726 92, -149.734375 92 M149.734375 92 C62.988480256422406 92, -23.757414487155188 92, -149.734375 92 M-149.734375 92 C-149.734375 25.987014437675384, -149.734375 -40.02597112464923, -149.734375 -92 M-149.734375 92 C-149.734375 21.46099101800793, -149.734375 -49.07801796398414, -149.734375 -92" stroke="#9370DB" stroke-width="1.3" fill="none" stroke-dasharray="0 0"/></g><g class="label" style="" transform="translate(-121.9609375, -84)"><foreignObject width="243.921875" height="24"><div xmlns="http://www.w3.org/1999/xhtml" style="display: table-cell; white-space: nowrap; line-height: 1.5; max-width: 359px; text-align: center;"><span class="nodeLabel markdown-node-label"><p>&lt;&lt;Functional Requirement&gt;&gt;</p></span></div></foreignObject></g><g class="label" style="; font-weight: bold;" transform="translate(-74.3359375, -60)"><foreignObject width="148.671875" height="24"><div style="font-weight: bold; display: table-cell; white-space: nowrap; line-height: 1.5; max-width: 184px; text-align: center;" xmlns="http://www.w3.org/1999/xhtml"><span style="; font-weight: bold;" class="nodeLabel markdown-node-label"><p>req_autonumber</p></span></div></foreignObject></g><g class="label" style="" transform="translate(-139.734375, -16)"><foreignObject width="77.734375" height="24"><div xmlns="http://www.w3.org/1999/xhtml" style="display: table-cell; white-space: nowrap; line-height: 1.5; max-width: 127px; text-align: center;"><span class="nodeLabel markdown-node-label"><p>ID: REQ-3</p></span></div></foreignObject></g><g class="label" style="" transform="translate(-139.734375, 8)"><foreignObject width="279.46875" height="24"><div xmlns="http://www.w3.org/1999/xhtml" style="display: table-cell; white-space: nowrap; line-height: 1.5; max-width: 330px; text-align: center;"><span class="nodeLabel markdown-node-label"><p>Text: 时序图必须以 autonumber 开头</p></span></div></foreignObject></g><g class="label" style="" transform="translate(-139.734375, 32)"><foreignObject width="107.625" height="24"><div xmlns="http://www.w3.org/1999/xhtml" style="display: table-cell; white-space: nowrap; line-height: 1.5; max-width: 156px; text-align: center;"><span class="nodeLabel markdown-node-label"><p>Risk: Medium</p></span></div></foreignObject></g><g class="label" style="" transform="translate(-139.734375, 56)"><foreignObject width="183.015625" height="24"><div xmlns="http://www.w3.org/1999/xhtml" style="display: table-cell; white-space: nowrap; line-height: 1.5; max-width: 232px; text-align: center;"><span class="nodeLabel markdown-node-label"><p>Verification: Inspection</p></span></div></foreignObject></g><g class="divider"><path d="M-149.734375 -24 C-60.555014059435635 -24, 28.62434688112873 -24, 149.734375 -24 M-149.734375 -24 C-89.7077207830871 -24, -29.681066566174195 -24, 149.734375 -24" stroke="#9370DB" stroke-width="1.3" fill="none" stroke-dasharray="0 0"/></g></g><g class="node default" id="my-svg-req_rect" data-look="classic" transform="translate(1217.78125, 310)"><g class="basic label-container outer-path" style=""><path d="M-155.34375 -92 L155.34375 -92 L155.34375 92 L-155.34375 92" stroke="none" stroke-width="0" fill="#ECECFF"/><path d="M-155.34375 -92 C-71.17378447705966 -92, 12.99618104588069 -92, 155.34375 -92 M-155.34375 -92 C-58.03498135981786 -92, 39.273787280364274 -92, 155.34375 -92 M155.34375 -92 C155.34375 -31.479410820300885, 155.34375 29.04117835939823, 155.34375 92 M155.34375 -92 C155.34375 -32.669367604903975, 155.34375 26.66126479019205, 155.34375 92 M155.34375 92 C55.47139498696819 92, -44.400960026063615 92, -155.34375 92 M155.34375 92 C92.11581422945511 92, 28.887878458910208 92, -155.34375 92 M-155.34375 92 C-155.34375 32.148913578344505, -155.34375 -27.70217284331099, -155.34375 -92 M-155.34375 92 C-155.34375 51.179028089097315, -155.34375 10.35805617819463, -155.34375 -92" stroke="#9370DB" stroke-width="1.3" fill="none" stroke-dasharray="0 0"/></g><g class="label" style="" transform="translate(-98.453125, -84)"><foreignObject width="196.90625" height="24"><div xmlns="http://www.w3.org/1999/xhtml" style="display: table-cell; white-space: nowrap; line-height: 1.5; max-width: 311px; text-align: center;"><span class="nodeLabel markdown-node-label"><p>&lt;&lt;Design Constraint&gt;&gt;</p></span></div></foreignObject></g><g class="label" style="; font-weight: bold;" transform="translate(-37.0390625, -60)"><foreignObject width="74.078125" height="24"><div style="font-weight: bold; display: table-cell; white-space: nowrap; line-height: 1.5; max-width: 117px; text-align: center;" xmlns="http://www.w3.org/1999/xhtml"><span style="; font-weight: bold;" class="nodeLabel markdown-node-label"><p>req_rect</p></span></div></foreignObject></g><g class="label" style="" transform="translate(-145.34375, -16)"><foreignObject width="77.734375" height="24"><div xmlns="http://www.w3.org/1999/xhtml" style="display: table-cell; white-space: nowrap; line-height: 1.5; max-width: 127px; text-align: center;"><span class="nodeLabel markdown-node-label"><p>ID: REQ-4</p></span></div></foreignObject></g><g class="label" style="" transform="translate(-145.34375, 8)"><foreignObject width="290.6875" height="24"><div xmlns="http://www.w3.org/1999/xhtml" style="display: table-cell; white-space: nowrap; line-height: 1.5; max-width: 341px; text-align: center;"><span class="nodeLabel markdown-node-label"><p>Text: rect 背景色每个通道必须大于 200</p></span></div></foreignObject></g><g class="label" style="" transform="translate(-145.34375, 32)"><foreignObject width="107.625" height="24"><div xmlns="http://www.w3.org/1999/xhtml" style="display: table-cell; white-space: nowrap; line-height: 1.5; max-width: 156px; text-align: center;"><span class="nodeLabel markdown-node-label"><p>Risk: Medium</p></span></div></foreignObject></g><g class="label" style="" transform="translate(-145.34375, 56)"><foreignObject width="183.015625" height="24"><div xmlns="http://www.w3.org/1999/xhtml" style="display: table-cell; white-space: nowrap; line-height: 1.5; max-width: 232px; text-align: center;"><span class="nodeLabel markdown-node-label"><p>Verification: Inspection</p></span></div></foreignObject></g><g class="divider"><path d="M-155.34375 -24 C-74.54199268331739 -24, 6.259764633365222 -24, 155.34375 -24 M-155.34375 -24 C-41.2731170375195 -24, 72.797515924961 -24, 155.34375 -24" stroke="#9370DB" stroke-width="1.3" fill="none" stroke-dasharray="0 0"/></g></g><g class="node default" id="my-svg-req_type" data-look="classic" transform="translate(1549.6796875, 568)"><g class="basic label-container outer-path" style=""><path d="M-131.9609375 -92 L131.9609375 -92 L131.9609375 92 L-131.9609375 92" stroke="none" stroke-width="0" fill="#ECECFF"/><path d="M-131.9609375 -92 C-67.75249806814182 -92, -3.544058636283637 -92, 131.9609375 -92 M-131.9609375 -92 C-74.23311861327116 -92, -16.505299726542333 -92, 131.9609375 -92 M131.9609375 -92 C131.9609375 -39.60618626194619, 131.9609375 12.787627476107616, 131.9609375 92 M131.9609375 -92 C131.9609375 -20.141415458078455, 131.9609375 51.71716908384309, 131.9609375 92 M131.9609375 92 C26.92534905489312 92, -78.11023939021376 92, -131.9609375 92 M131.9609375 92 C36.80301341279839 92, -58.354910674403214 92, -131.9609375 92 M-131.9609375 92 C-131.9609375 29.00758748518578, -131.9609375 -33.98482502962844, -131.9609375 -92 M-131.9609375 92 C-131.9609375 45.70064674595121, -131.9609375 -0.5987065080975782, -131.9609375 -92" stroke="#9370DB" stroke-width="1.3" fill="none" stroke-dasharray="0 0"/></g><g class="label" style="" transform="translate(-121.9609375, -84)"><foreignObject width="243.921875" height="24"><div xmlns="http://www.w3.org/1999/xhtml" style="display: table-cell; white-space: nowrap; line-height: 1.5; max-width: 359px; text-align: center;"><span class="nodeLabel markdown-node-label"><p>&lt;&lt;Functional Requirement&gt;&gt;</p></span></div></foreignObject></g><g class="label" style="; font-weight: bold;" transform="translate(-39.2890625, -60)"><foreignObject width="78.578125" height="24"><div style="font-weight: bold; display: table-cell; white-space: nowrap; line-height: 1.5; max-width: 120px; text-align: center;" xmlns="http://www.w3.org/1999/xhtml"><span style="; font-weight: bold;" class="nodeLabel markdown-node-label"><p>req_type</p></span></div></foreignObject></g><g class="label" style="" transform="translate(-121.9609375, -16)"><foreignObject width="77.734375" height="24"><div xmlns="http://www.w3.org/1999/xhtml" style="display: table-cell; white-space: nowrap; line-height: 1.5; max-width: 127px; text-align: center;"><span class="nodeLabel markdown-node-label"><p>ID: REQ-5</p></span></div></foreignObject></g><g class="label" style="" transform="translate(-121.9609375, 8)"><foreignObject width="234.84375" height="24"><div xmlns="http://www.w3.org/1999/xhtml" style="display: table-cell; white-space: nowrap; line-height: 1.5; max-width: 285px; text-align: center;"><span class="nodeLabel markdown-node-label"><p>Text: 图类型必须与建模意图匹配</p></span></div></foreignObject></g><g class="label" style="" transform="translate(-121.9609375, 32)"><foreignObject width="75.15625" height="24"><div xmlns="http://www.w3.org/1999/xhtml" style="display: table-cell; white-space: nowrap; line-height: 1.5; max-width: 124px; text-align: center;"><span class="nodeLabel markdown-node-label"><p>Risk: Low</p></span></div></foreignObject></g><g class="label" style="" transform="translate(-121.9609375, 56)"><foreignObject width="166.296875" height="24"><div xmlns="http://www.w3.org/1999/xhtml" style="display: table-cell; white-space: nowrap; line-height: 1.5; max-width: 214px; text-align: center;"><span class="nodeLabel markdown-node-label"><p>Verification: Analysis</p></span></div></foreignObject></g><g class="divider"><path d="M-131.9609375 -24 C-49.76218541882709 -24, 32.436566662345825 -24, 131.9609375 -24 M-131.9609375 -24 C-40.14043612678195 -24, 51.6800652464361 -24, 131.9609375 -24" stroke="#9370DB" stroke-width="1.3" fill="none" stroke-dasharray="0 0"/></g></g><g class="node default" id="my-svg-lint_rules" data-look="classic" transform="translate(1040.2421875, 76)"><g class="basic label-container outer-path" style=""><path d="M-105.8046875 -68 L105.8046875 -68 L105.8046875 68 L-105.8046875 68" stroke="none" stroke-width="0" fill="#ECECFF"/><path d="M-105.8046875 -68 C-61.86483292850912 -68, -17.924978357018233 -68, 105.8046875 -68 M-105.8046875 -68 C-36.11280571983551 -68, 33.57907606032899 -68, 105.8046875 -68 M105.8046875 -68 C105.8046875 -33.78417244410041, 105.8046875 0.4316551117991736, 105.8046875 68 M105.8046875 -68 C105.8046875 -34.45338978261358, 105.8046875 -0.9067795652271542, 105.8046875 68 M105.8046875 68 C42.92411528519406 68, -19.956456929611875 68, -105.8046875 68 M105.8046875 68 C61.57067387163192 68, 17.336660243263836 68, -105.8046875 68 M-105.8046875 68 C-105.8046875 38.01320490264196, -105.8046875 8.026409805283912, -105.8046875 -68 M-105.8046875 68 C-105.8046875 21.763885687606304, -105.8046875 -24.47222862478739, -105.8046875 -68" stroke="#9370DB" stroke-width="1.3" fill="none" stroke-dasharray="0 0"/></g><g class="label" style="" transform="translate(-59.9375, -60)"><foreignObject width="119.875" height="24"><div xmlns="http://www.w3.org/1999/xhtml" style="display: table-cell; white-space: nowrap; line-height: 1.5; max-width: 236px; text-align: center;"><span class="nodeLabel markdown-node-label"><p>&lt;&lt;Element&gt;&gt;</p></span></div></foreignObject></g><g class="label" style="; font-weight: bold;" transform="translate(-41.578125, -36)"><foreignObject width="83.15625" height="24"><div style="font-weight: bold; display: table-cell; white-space: nowrap; line-height: 1.5; max-width: 123px; text-align: center;" xmlns="http://www.w3.org/1999/xhtml"><span style="; font-weight: bold;" class="nodeLabel markdown-node-label"><p>lint_rules</p></span></div></foreignObject></g><g class="label" style="" transform="translate(-95.8046875, 8)"><foreignObject width="85.8125" height="24"><div xmlns="http://www.w3.org/1999/xhtml" style="display: table-cell; white-space: nowrap; line-height: 1.5; max-width: 137px; text-align: center;"><span class="nodeLabel markdown-node-label"><p>Type: code</p></span></div></foreignObject></g><g class="label" style="" transform="translate(-95.8046875, 32)"><foreignObject width="191.609375" height="24"><div xmlns="http://www.w3.org/1999/xhtml" style="display: table-cell; white-space: nowrap; line-height: 1.5; max-width: 238px; text-align: center;"><span class="nodeLabel markdown-node-label"><p>Doc Ref: skill lint runner</p></span></div></foreignObject></g><g class="divider"><path d="M-105.8046875 0 C-30.387676422138597 0, 45.029334655722806 0, 105.8046875 0 M-105.8046875 0 C-46.891146913630436 0, 12.022393672739128 0, 105.8046875 0" stroke="#9370DB" stroke-width="1.3" fill="none" stroke-dasharray="0 0"/></g></g><g class="node default" id="my-svg-skill_docs" data-look="classic" transform="translate(199.0625, 310)"><g class="basic label-container outer-path" style=""><path d="M-191.0625 -68 L191.0625 -68 L191.0625 68 L-191.0625 68" stroke="none" stroke-width="0" fill="#ECECFF"/><path d="M-191.0625 -68 C-97.315266659285 -68, -3.568033318570002 -68, 191.0625 -68 M-191.0625 -68 C-61.467047094580096 -68, 68.12840581083981 -68, 191.0625 -68 M191.0625 -68 C191.0625 -28.725344775897973, 191.0625 10.549310448204054, 191.0625 68 M191.0625 -68 C191.0625 -23.49494914847191, 191.0625 21.01010170305618, 191.0625 68 M191.0625 68 C64.33493444730705 68, -62.3926311053859 68, -191.0625 68 M191.0625 68 C104.83694983961811 68, 18.61139967923623 68, -191.0625 68 M-191.0625 68 C-191.0625 31.0249662275237, -191.0625 -5.950067544952603, -191.0625 -68 M-191.0625 68 C-191.0625 13.620589794034352, -191.0625 -40.758820411931296, -191.0625 -68" stroke="#9370DB" stroke-width="1.3" fill="none" stroke-dasharray="0 0"/></g><g class="label" style="" transform="translate(-59.9375, -60)"><foreignObject width="119.875" height="24"><div xmlns="http://www.w3.org/1999/xhtml" style="display: table-cell; white-space: nowrap; line-height: 1.5; max-width: 236px; text-align: center;"><span class="nodeLabel markdown-node-label"><p>&lt;&lt;Element&gt;&gt;</p></span></div></foreignObject></g><g class="label" style="; font-weight: bold;" transform="translate(-43.0390625, -36)"><foreignObject width="86.078125" height="24"><div style="font-weight: bold; display: table-cell; white-space: nowrap; line-height: 1.5; max-width: 126px; text-align: center;" xmlns="http://www.w3.org/1999/xhtml"><span style="; font-weight: bold;" class="nodeLabel markdown-node-label"><p>skill_docs</p></span></div></foreignObject></g><g class="label" style="" transform="translate(-181.0625, 8)"><foreignObject width="127.953125" height="24"><div xmlns="http://www.w3.org/1999/xhtml" style="display: table-cell; white-space: nowrap; line-height: 1.5; max-width: 179px; text-align: center;"><span class="nodeLabel markdown-node-label"><p>Type: document</p></span></div></foreignObject></g><g class="label" style="" transform="translate(-181.0625, 32)"><foreignObject width="362.125" height="24"><div xmlns="http://www.w3.org/1999/xhtml" style="display: table-cell; white-space: nowrap; line-height: 1.5; max-width: 416px; text-align: center;"><span class="nodeLabel markdown-node-label"><p>Doc Ref: references/encoded-preferences.md</p></span></div></foreignObject></g><g class="divider"><path d="M-191.0625 0 C-41.0736238000093 0, 108.9152523999814 0, 191.0625 0 M-191.0625 0 C-100.53618658086127 0, -10.009873161722538 0, 191.0625 0" stroke="#9370DB" stroke-width="1.3" fill="none" stroke-dasharray="0 0"/></g></g><g class="node default" id="my-svg-mmdc_gate" data-look="classic" transform="translate(1549.6796875, 310)"><g class="basic label-container outer-path" style=""><path d="M-126.5546875 -68 L126.5546875 -68 L126.5546875 68 L-126.5546875 68" stroke="none" stroke-width="0" fill="#ECECFF"/><path d="M-126.5546875 -68 C-74.44510419975097 -68, -22.335520899501944 -68, 126.5546875 -68 M-126.5546875 -68 C-56.80803329580661 -68, 12.938620908386781 -68, 126.5546875 -68 M126.5546875 -68 C126.5546875 -27.186730692757948, 126.5546875 13.626538614484105, 126.5546875 68 M126.5546875 -68 C126.5546875 -37.22722684312105, 126.5546875 -6.454453686242104, 126.5546875 68 M126.5546875 68 C37.38835785621009 68, -51.777971787579816 68, -126.5546875 68 M126.5546875 68 C73.58783168843902 68, 20.620975876878063 68, -126.5546875 68 M-126.5546875 68 C-126.5546875 30.38482298856612, -126.5546875 -7.230354022867758, -126.5546875 -68 M-126.5546875 68 C-126.5546875 31.35184865434556, -126.5546875 -5.296302691308881, -126.5546875 -68" stroke="#9370DB" stroke-width="1.3" fill="none" stroke-dasharray="0 0"/></g><g class="label" style="" transform="translate(-59.9375, -60)"><foreignObject width="119.875" height="24"><div xmlns="http://www.w3.org/1999/xhtml" style="display: table-cell; white-space: nowrap; line-height: 1.5; max-width: 236px; text-align: center;"><span class="nodeLabel markdown-node-label"><p>&lt;&lt;Element&gt;&gt;</p></span></div></foreignObject></g><g class="label" style="; font-weight: bold;" transform="translate(-51.515625, -36)"><foreignObject width="103.03125" height="24"><div style="font-weight: bold; display: table-cell; white-space: nowrap; line-height: 1.5; max-width: 145px; text-align: center;" xmlns="http://www.w3.org/1999/xhtml"><span style="; font-weight: bold;" class="nodeLabel markdown-node-label"><p>mmdc_gate</p></span></div></foreignObject></g><g class="label" style="" transform="translate(-116.5546875, 8)"><foreignObject width="77.53125" height="24"><div xmlns="http://www.w3.org/1999/xhtml" style="display: table-cell; white-space: nowrap; line-height: 1.5; max-width: 128px; text-align: center;"><span class="nodeLabel markdown-node-label"><p>Type: tool</p></span></div></foreignObject></g><g class="label" style="" transform="translate(-116.5546875, 32)"><foreignObject width="233.109375" height="24"><div xmlns="http://www.w3.org/1999/xhtml" style="display: table-cell; white-space: nowrap; line-height: 1.5; max-width: 282px; text-align: center;"><span class="nodeLabel markdown-node-label"><p>Doc Ref: mermaid-cli 11.15.0</p></span></div></foreignObject></g><g class="divider"><path d="M-126.5546875 0 C-37.144835473632256 0, 52.26501655273549 0, 126.5546875 0 M-126.5546875 0 C-50.18598685216767 0, 26.182713795664654 0, 126.5546875 0" stroke="#9370DB" stroke-width="1.3" fill="none" stroke-dasharray="0 0"/></g></g></g></g></g><defs><filter id="my-svg-drop-shadow" height="130%" width="130%"><feDropShadow dx="4" dy="4" stdDeviation="0" flood-opacity="0.06" flood-color="#000000"/></filter></defs><defs><filter id="my-svg-drop-shadow-small" height="150%" width="150%"><feDropShadow dx="2" dy="2" stdDeviation="0" flood-opacity="0.06" flood-color="#000000"/></filter></defs></svg>