<svg id="my-svg" width="100%" xmlns="http://www.w3.org/2000/svg" xmlns:xlink="http://www.w3.org/1999/xlink" style="max-width: 790.188px; background-color: white;" viewBox="-132.1875 -36.70000076293945 790.1875 268.9234161376953" role="graphics-document document" aria-roledescription="gitGraph"><style>#my-svg{font-family:"trebuchet ms",verdana,arial,sans-serif;font-size:16px;fill:#333;}@keyframes edge-animation-frame{from{stroke-dashoffset:0;}}@keyframes dash{to{stroke-dashoffset:0;}}#my-svg .edge-animation-slow{stroke-dasharray:9,5!important;stroke-dashoffset:900;animation:dash 50s linear infinite;stroke-linecap:round;}#my-svg .edge-animation-fast{stroke-dasharray:9,5!important;stroke-dashoffset:900;animation:dash 20s linear infinite;stroke-linecap:round;}#my-svg .error-icon{fill:#552222;}#my-svg .error-text{fill:#552222;stroke:#552222;}#my-svg .edge-thickness-normal{stroke-width:1px;}#my-svg .edge-thickness-thick{stroke-width:3.5px;}#my-svg .edge-pattern-solid{stroke-dasharray:0;}#my-svg .edge-thickness-invisible{stroke-width:0;fill:none;}#my-svg .edge-pattern-dashed{stroke-dasharray:3;}#my-svg .edge-pattern-dotted{stroke-dasharray:2;}#my-svg .marker{fill:#333333;stroke:#333333;}#my-svg .marker.cross{stroke:#333333;}#my-svg svg{font-family:"trebuchet ms",verdana,arial,sans-serif;font-size:16px;}#my-svg p{margin:0;}#my-svg .commit-id,#my-svg .commit-msg,#my-svg .branch-label{fill:lightgrey;color:lightgrey;font-family:'trebuchet ms',verdana,arial,sans-serif;font-family:var(--mermaid-font-family);}#my-svg .branch-label0{fill:#ffffff;}#my-svg .commit0{stroke:hsl(240, 100%, 46.2745098039%);fill:hsl(240, 100%, 46.2745098039%);}#my-svg .commit-highlight0{stroke:hsl(60, 100%, 3.7254901961%);fill:hsl(60, 100%, 3.7254901961%);}#my-svg .label0{fill:hsl(240, 100%, 46.2745098039%);}#my-svg .arrow0{stroke:hsl(240, 100%, 46.2745098039%);}#my-svg .branch-label1{fill:black;}#my-svg .commit1{stroke:hsl(60, 100%, 43.5294117647%);fill:hsl(60, 100%, 43.5294117647%);}#my-svg .commit-highlight1{stroke:rgb(0, 0, 160.5);fill:rgb(0, 0, 160.5);}#my-svg .label1{fill:hsl(60, 100%, 43.5294117647%);}#my-svg .arrow1{stroke:hsl(60, 100%, 43.5294117647%);}#my-svg .branch-label2{fill:black;}#my-svg .commit2{stroke:hsl(80, 100%, 46.2745098039%);fill:hsl(80, 100%, 46.2745098039%);}#my-svg .commit-highlight2{stroke:rgb(48.8333333334, 0, 146.5000000001);fill:rgb(48.8333333334, 0, 146.5000000001);}#my-svg .label2{fill:hsl(80, 100%, 46.2745098039%);}#my-svg .arrow2{stroke:hsl(80, 100%, 46.2745098039%);}#my-svg .branch-label3{fill:#ffffff;}#my-svg .commit3{stroke:hsl(210, 100%, 46.2745098039%);fill:hsl(210, 100%, 46.2745098039%);}#my-svg .commit-highlight3{stroke:rgb(146.5000000001, 73.2500000001, 0);fill:rgb(146.5000000001, 73.2500000001, 0);}#my-svg .label3{fill:hsl(210, 100%, 46.2745098039%);}#my-svg .arrow3{stroke:hsl(210, 100%, 46.2745098039%);}#my-svg .branch-label4{fill:black;}#my-svg .commit4{stroke:hsl(180, 100%, 46.2745098039%);fill:hsl(180, 100%, 46.2745098039%);}#my-svg .commit-highlight4{stroke:rgb(146.5000000001, 0, 0);fill:rgb(146.5000000001, 0, 0);}#my-svg .label4{fill:hsl(180, 100%, 46.2745098039%);}#my-svg .arrow4{stroke:hsl(180, 100%, 46.2745098039%);}#my-svg .branch-label5{fill:black;}#my-svg .commit5{stroke:hsl(150, 100%, 46.2745098039%);fill:hsl(150, 100%, 46.2745098039%);}#my-svg .commit-highlight5{stroke:rgb(146.5000000001, 0, 73.2500000001);fill:rgb(146.5000000001, 0, 73.2500000001);}#my-svg .label5{fill:hsl(150, 100%, 46.2745098039%);}#my-svg .arrow5{stroke:hsl(150, 100%, 46.2745098039%);}#my-svg .branch-label6{fill:black;}#my-svg .commit6{stroke:hsl(300, 100%, 46.2745098039%);fill:hsl(300, 100%, 46.2745098039%);}#my-svg .commit-highlight6{stroke:rgb(0, 146.5000000001, 0);fill:rgb(0, 146.5000000001, 0);}#my-svg .label6{fill:hsl(300, 100%, 46.2745098039%);}#my-svg .arrow6{stroke:hsl(300, 100%, 46.2745098039%);}#my-svg .branch-label7{fill:black;}#my-svg .commit7{stroke:hsl(0, 100%, 46.2745098039%);fill:hsl(0, 100%, 46.2745098039%);}#my-svg .commit-highlight7{stroke:rgb(0, 146.5000000001, 146.5000000001);fill:rgb(0, 146.5000000001, 146.5000000001);}#my-svg .label7{fill:hsl(0, 100%, 46.2745098039%);}#my-svg .arrow7{stroke:hsl(0, 100%, 46.2745098039%);}#my-svg .branch-label8{fill:#ffffff;}#my-svg .commit8{stroke:hsl(240, 100%, 46.2745098039%);fill:hsl(240, 100%, 46.2745098039%);}#my-svg .commit-highlight8{stroke:hsl(60, 100%, 3.7254901961%);fill:hsl(60, 100%, 3.7254901961%);}#my-svg .label8{fill:hsl(240, 100%, 46.2745098039%);}#my-svg .arrow8{stroke:hsl(240, 100%, 46.2745098039%);}#my-svg .branch-label9{fill:black;}#my-svg .commit9{stroke:hsl(60, 100%, 43.5294117647%);fill:hsl(60, 100%, 43.5294117647%);}#my-svg .commit-highlight9{stroke:rgb(0, 0, 160.5);fill:rgb(0, 0, 160.5);}#my-svg .label9{fill:hsl(60, 100%, 43.5294117647%);}#my-svg .arrow9{stroke:hsl(60, 100%, 43.5294117647%);}#my-svg .branch-label10{fill:black;}#my-svg .commit10{stroke:hsl(80, 100%, 46.2745098039%);fill:hsl(80, 100%, 46.2745098039%);}#my-svg .commit-highlight10{stroke:rgb(48.8333333334, 0, 146.5000000001);fill:rgb(48.8333333334, 0, 146.5000000001);}#my-svg .label10{fill:hsl(80, 100%, 46.2745098039%);}#my-svg .arrow10{stroke:hsl(80, 100%, 46.2745098039%);}#my-svg .branch-label11{fill:#ffffff;}#my-svg .commit11{stroke:hsl(210, 100%, 46.2745098039%);fill:hsl(210, 100%, 46.2745098039%);}#my-svg .commit-highlight11{stroke:rgb(146.5000000001, 73.2500000001, 0);fill:rgb(146.5000000001, 73.2500000001, 0);}#my-svg .label11{fill:hsl(210, 100%, 46.2745098039%);}#my-svg .arrow11{stroke:hsl(210, 100%, 46.2745098039%);}#my-svg .branch{stroke-width:1;stroke:#333333;stroke-dasharray:2;}#my-svg .commit-label{font-size:10px;fill:#000021;}#my-svg .commit-label-bkg{font-size:10px;fill:#ffffde;opacity:0.5;}#my-svg .tag-label{font-size:10px;fill:#131300;}#my-svg .tag-label-bkg{fill:#ECECFF;stroke:hsl(240, 60%, 86.2745098039%);}#my-svg .tag-hole{fill:#333;}#my-svg .commit-merge{stroke:#ECECFF;fill:#ECECFF;}#my-svg .commit-reverse{stroke:#ECECFF;fill:#ECECFF;stroke-width:3;}#my-svg .commit-highlight-inner{stroke:#ECECFF;fill:#ECECFF;}#my-svg .arrow{stroke-width:8;stroke-linecap:round;fill:none;}#my-svg .gitTitleText{text-anchor:middle;font-size:18px;fill:#333;}#my-svg .node .neo-node{stroke:#9370DB;}#my-svg [data-look="neo"].node rect,#my-svg [data-look="neo"].cluster rect,#my-svg [data-look="neo"].node polygon{stroke:#9370DB;filter:drop-shadow(1px 2px 2px rgba(185, 185, 185, 1));}#my-svg [data-look="neo"].node path{stroke:#9370DB;stroke-width:1px;}#my-svg [data-look="neo"].node .outer-path{filter:drop-shadow(1px 2px 2px rgba(185, 185, 185, 1));}#my-svg [data-look="neo"].node .neo-line path{stroke:#9370DB;filter:none;}#my-svg [data-look="neo"].node circle{stroke:#9370DB;filter:drop-shadow(1px 2px 2px rgba(185, 185, 185, 1));}#my-svg [data-look="neo"].node circle .state-start{fill:#000000;}#my-svg [data-look="neo"].icon-shape .icon{fill:#9370DB;filter:drop-shadow(1px 2px 2px rgba(185, 185, 185, 1));}#my-svg [data-look="neo"].icon-shape .icon-neo path{stroke:#9370DB;filter:drop-shadow(1px 2px 2px rgba(185, 185, 185, 1));}#my-svg :root{--mermaid-font-family:"trebuchet ms",verdana,arial,sans-serif;}</style><g/><g class="commit-bullets"/><g class="commit-labels"/><g><line x1="0" y1="-2" x2="650" y2="-2" class="branch branch0"/><rect class="branchLabelBkg label0" style="" rx="4" ry="4" x="-73.984375" y="0.5" width="57.984375" height="23" transform="translate(-19, -14)"/><g class="branchLabel"><g class="label branch-label0" transform="translate(-83.984375, -13.5)"><text><tspan xml:space="preserve" dy="1em" x="0" class="row">main</tspan></text></g></g><line x1="0" y1="88" x2="650" y2="88" class="branch branch1"/><rect class="branchLabelBkg label1" style="" rx="4" ry="4" x="-64.9375" y="0.5" width="48.9375" height="23" transform="translate(-19, 76)"/><g class="branchLabel"><g class="label branch-label1" transform="translate(-74.9375, 76.5)"><text><tspan xml:space="preserve" dy="1em" x="0" class="row">skill</tspan></text></g></g><line x1="0" y1="178" x2="650" y2="178" class="branch branch2"/><rect class="branchLabelBkg label2" style="" rx="4" ry="4" x="-105.1875" y="0.5" width="89.1875" height="23" transform="translate(-19, 166)"/><g class="branchLabel"><g class="label branch-label2" transform="translate(-115.1875, 166.5)"><text><tspan xml:space="preserve" dy="1em" x="0" class="row">validator</tspan></text></g></g></g><g class="commit-arrows"><path d="M 10 -2 L 10 68 A 20 20, 0, 0, 0, 30 88 L 60 88" class="arrow arrow1"/><path d="M 60 88 L 110 88" class="arrow arrow1"/><path d="M 10 -2 L 160 -2" class="arrow arrow0"/><path d="M 160 -2 L 210 -2" class="arrow arrow0"/><path d="M 110 88 L 190 88 A 20 20, 0, 0, 0, 210 68 L 210 -2" class="arrow arrow1"/><path d="M 210 -2 L 210 158 A 20 20, 0, 0, 0, 230 178 L 260 178" class="arrow arrow2"/><path d="M 260 178 L 310 178" class="arrow arrow2"/><path d="M 210 -2 L 360 -2" class="arrow arrow0"/><path d="M 360 -2 L 410 -2" class="arrow arrow0"/><path d="M 310 178 L 310 18 A 20 20, 0, 0, 1, 330 -2 L 410 -2" class="arrow arrow0"/><path d="M 410 -2 L 460 -2" class="arrow arrow0"/><path d="M 310 178 L 440 178 A 20 20, 0, 0, 0, 460 158 L 460 -2" class="arrow arrow2"/><path d="M 110 88 L 510 88" class="arrow arrow1"/><path d="M 460 -2 L 560 -2" class="arrow arrow0"/><path d="M 560 -2 L 610 -2" class="arrow arrow0"/><path d="M 510 88 L 590 88 A 20 20, 0, 0, 0, 610 68 L 610 -2" class="arrow arrow1"/></g><g class="commit-bullets"><circle cx="10" cy="-2" r="10" class="commit init commit0"/><circle cx="60" cy="88" r="10" class="commit types commit1"/><circle cx="110" cy="88" r="10" class="commit prefs commit1"/><circle cx="160" cy="-2" r="10" class="commit tui commit0"/><circle cx="210" cy="-2" r="10" class="commit 4-ac65f30 commit0"/><circle cx="210" cy="-2" r="6" class="commit commit-merge 4-ac65f30 commit0"/><circle cx="260" cy="178" r="10" class="commit mmdc commit2"/><circle cx="310" cy="178" r="10" class="commit lint commit2"/><circle cx="360" cy="-2" r="10" class="commit evals commit0"/><circle cx="410" cy="-2" r="10" class="commit 8-8693b7b commit-cherry-pick"/><circle cx="407" cy="0" r="2.75" fill="#fff" class="commit 8-8693b7b commit-cherry-pick"/><circle cx="413" cy="0" r="2.75" fill="#fff" class="commit 8-8693b7b commit-cherry-pick"/><line x1="413" y1="-1" x2="410" y2="-7" stroke="#fff" class="commit 8-8693b7b commit-cherry-pick"/><line x1="407" y1="-1" x2="410" y2="-7" stroke="#fff" class="commit 8-8693b7b commit-cherry-pick"/><circle cx="460" cy="-2" r="10" class="commit 9-71759be commit0"/><circle cx="460" cy="-2" r="6" class="commit commit-merge 9-71759be commit0"/><circle cx="510" cy="88" r="10" class="commit selfcheck commit1"/><rect x="550" y="-12" width="20" height="20" class="commit docs commit-highlight0 commit-highlight-outer"/><rect x="554" y="-8" width="12" height="12" class="commit docs commit0 commit-highlight-inner"/><circle cx="610" cy="-2" r="10" class="commit 12-8025f7b commit0"/><circle cx="610" cy="-2" r="6" class="commit commit-merge 12-8025f7b commit0"/></g><g class="commit-labels"><g transform="translate(-17.339921875, 15.404140625) rotate(-45, 0, -2)"><rect class="commit-label-bkg" x="0.052734375" y="11.5" width="19.89453125" height="15"/><text x="2.052734375" y="23" class="commit-label">init</text></g><polygon class="tag-label-bkg" points="-17.6875,-19.2  &#10;      -17.6875,-23.2&#10;      -9.6875,-28.7&#10;      29.6875,-28.7&#10;      29.6875,-13.7&#10;      -9.6875,-13.7"/><circle cy="-21.2" cx="-13.6875" r="1.5" class="tag-hole"/><text y="-18" class="tag-label" x="-5.6875">v0.1.0</text><g transform="translate(-21.77375, 19.37125) rotate(-45, 50, 88)"><rect class="commit-label-bkg" x="44.21875" y="101.5" width="31.5625" height="15"/><text x="46.21875" y="113" class="commit-label">types</text></g><g transform="translate(-20.8475, 18.542499999999997) rotate(-45, 100, 88)"><rect class="commit-label-bkg" x="95.4375" y="101.5" width="29.125" height="15"/><text x="97.4375" y="113" class="commit-label">prefs</text></g><g transform="translate(-16.2578125, 14.4359375) rotate(-45, 150, -2)"><rect class="commit-label-bkg" x="151.4765625" y="11.5" width="17.046875" height="15"/><text x="153.4765625" y="23" class="commit-label">tui</text></g><polygon class="tag-label-bkg" points="182.3125,-19.2  &#10;      182.3125,-23.2&#10;      190.3125,-28.7&#10;      229.6875,-28.7&#10;      229.6875,-13.7&#10;      190.3125,-13.7"/><circle cy="-21.2" cx="186.3125" r="1.5" class="tag-hole"/><text y="-18" class="tag-label" x="194.3125">v0.2.0</text><g transform="translate(-23.2046875, 20.6515625) rotate(-45, 250, 178)"><rect class="commit-label-bkg" x="242.3359375" y="191.5" width="35.328125" height="15"/><text x="244.3359375" y="203" class="commit-label">mmdc</text></g><g transform="translate(-17.339921875, 15.404140625) rotate(-45, 300, 178)"><rect class="commit-label-bkg" x="300.052734375" y="191.5" width="19.89453125" height="15"/><text x="302.052734375" y="203" class="commit-label">lint</text></g><g transform="translate(-21.25125, 18.903750000000002) rotate(-45, 350, -2)"><rect class="commit-label-bkg" x="344.90625" y="11.5" width="30.1875" height="15"/><text x="346.90625" y="23" class="commit-label">evals</text></g><polygon class="tag-label-bkg" points="360.4677734375,-19.2  &#10;      360.4677734375,-23.2&#10;      368.4677734375,-28.7&#10;      451.5322265625,-28.7&#10;      451.5322265625,-13.7&#10;      368.4677734375,-13.7"/><circle cy="-21.2" cx="364.4677734375" r="1.5" class="tag-hole"/><text y="-18" class="tag-label" x="372.4677734375">cherry-pick:lint</text><polygon class="tag-label-bkg" points="432.3125,-19.2  &#10;      432.3125,-23.2&#10;      440.3125,-28.7&#10;      479.6875,-28.7&#10;      479.6875,-13.7&#10;      440.3125,-13.7"/><circle cy="-21.2" cx="436.3125" r="1.5" class="tag-hole"/><text y="-18" class="tag-label" x="444.3125">v0.3.0</text><g transform="translate(-29.21603515625, 26.03013671875) rotate(-45, 500, 88)"><rect class="commit-label-bkg" x="484.42626953125" y="101.5" width="51.1474609375" height="15"/><text x="486.42626953125" y="113" class="commit-label">selfcheck</text></g><g transform="translate(-20.11125, 17.88375) rotate(-45, 550, -2)"><rect class="commit-label-bkg" x="546.40625" y="11.5" width="27.1875" height="15"/><text x="548.40625" y="23" class="commit-label">docs</text></g><polygon class="tag-label-bkg" points="582.3125,-19.2  &#10;      582.3125,-23.2&#10;      590.3125,-28.7&#10;      629.6875,-28.7&#10;      629.6875,-13.7&#10;      590.3125,-13.7"/><circle cy="-21.2" cx="586.3125" r="1.5" class="tag-hole"/><text y="-18" class="tag-label" x="594.3125">v0.4.0</text></g></svg>